<svg height="226.777" viewBox="0 0 226.777 226.777" width="226.777" xmlns="http://www.w3.org/2000/svg"><path d="m113.389 0c-62.623 0-113.389 50.766-113.389 113.388 0 62.623 50.766 113.389 113.389 113.389 62.622 0 113.388-50.766 113.388-113.389 0-62.622-50.766-113.388-113.388-113.388zm-.001 197.385c-23.071 0-43.966-9.303-59.146-24.359l9.05-16.431h100.349l8.979 16.347c-15.188 15.106-36.118 24.443-59.232 24.443zm33.081-72.189 8.099 14.808h-82.229l8.072-14.808zm-57.012-16.592 23.931-43.893 24.007 43.893zm94.495 50.363-70.564-129.577-70.644 129.454c-8.448-13.104-13.354-28.707-13.354-45.456 0-46.391 37.607-83.999 83.998-83.999s83.997 37.607 83.997 83.999c0 16.803-4.935 32.451-13.433 45.579z"/></svg>