<svg height="226.777" viewBox="0 0 226.777 226.777" width="226.777" xmlns="http://www.w3.org/2000/svg"><path d="m65.241 83.402h31.294v10.19h-31.294z"/><path d="m113.388 0c-62.622 0-113.388 50.766-113.388 113.388 0 62.624 50.766 113.389 113.388 113.389 62.624 0 113.389-50.765 113.389-113.389 0-62.622-50.766-113.388-113.389-113.388zm3.526 50.653h54.58v10.917h-42.938v32.021h31.295v-10.19h-21.834v-10.914h33.477v32.021h-54.58zm-62.07.59h34.186v13.122h-34.186zm-1.246 21.244h42.938v-21.834h12.372v53.854h-55.31zm119.41 108.301h-24.754l-34.785-23.887-34.784 23.887h-24.755l47.162-32.387-47.162-32.385h24.754l34.784 23.885 34.785-23.885h24.754l-47.162 32.385z"/></svg>