<svg height="226.777" viewBox="0 0 226.777 226.777" width="226.777" xmlns="http://www.w3.org/2000/svg"><path d="m43.633 85.44-41.899 8.096a113.903 113.903 0 0 0 -1.734 19.85c0 7.086.656 14.021 1.899 20.749l41.735 7.29zm69.752 18.589 26.207-51.967h-52.415zm-61.325-16.851v52.416l51.969-26.208zm119.764-7.982-24.25-24.251-24.67 48.922zm-98.989-29.807-39.086-15.629 15.57 39.143zm120.176-15.64-39.143 15.573 23.515 23.515zm-18.302 105.845v-52.416l-51.966 26.208zm18.313 53.417-15.573-39.143-23.516 23.516zm-43.434-151.056 37.348-14.858c-12.777-10.901-28.002-19.015-44.738-23.399zm77.183 71.431c0-7.087-.656-14.021-1.899-20.749l-41.734-7.29v55.983l41.899-8.096a113.88 113.88 0 0 0 1.734-19.848zm-42.008-36.307 38.081 6.651c-4.436-16.413-12.46-31.347-23.184-43.912zm-111.862 100.371-23.515-23.514-15.627 39.086zm111.915-27.862 14.858 37.348c10.901-12.775 19.014-28.001 23.399-44.737zm2.137 50.073-37.26-14.897-6.652 38.082c16.411-4.436 31.347-12.46 43.912-23.185zm-15.128-52.086-48.921-24.671 24.67 48.92zm-86.478-103.94h55.984l-8.096-41.901a113.991 113.991 0 0 0 -19.85-1.734c-7.089 0-14.022.656-20.749 1.902zm56.076 139.503h-55.983l8.096 41.898a113.894 113.894 0 0 0 19.85 1.734c7.087 0 14.02-.656 20.749-1.899zm-28.038-60.395-26.207 51.966h52.414zm-73.566-95.63 37.258 14.896 6.653-38.082c-16.413 4.437-31.347 12.46-43.911 23.186zm15.128 52.085 48.919 24.669-24.669-48.918zm-12.992-2.014-14.859-37.348c-10.9 12.776-19.014 28.002-23.399 44.737zm12.991 70.393 24.249 24.25 24.671-48.923zm22.235 37.239-37.346 14.858c12.775 10.901 28.002 19.014 44.738 23.399zm-35.173-35.124-38.081-6.651c4.435 16.411 12.46 31.348 23.184 43.912z"/></svg>