<svg height="226.777" viewBox="0 0 226.777 226.777" width="226.777" xmlns="http://www.w3.org/2000/svg"><path d="m113.369 0c-62.612 0-113.369 50.757-113.369 113.369s50.757 113.369 113.369 113.369c62.611 0 113.369-50.757 113.369-113.369s-50.758-113.369-113.369-113.369zm66.871 95.253-23.266-4.063 9.102-22.763a69.08 69.08 0 0 1 14.164 26.826zm-27.773-6.654-14.365-14.366 23.913-9.513zm-39.097 19.055-16.011-31.747h32.021zm20.887-29.986 14.814 14.815-29.886 15.072zm-26.702 29.887-29.886-15.071 14.815-14.814zm.099 5.815-31.748 16.011v-32.022zm-.099 5.815-15.073 29.887-14.813-14.814zm5.815-.098 16.01 31.746h-32.021zm5.815.098 29.886 15.071-14.814 14.813zm-.098-5.815 31.746-16.011v32.021zm39.215-52.714-22.816 9.077-4.515-23.373a69.071 69.071 0 0 1 27.331 14.296zm-57.608-15.393a69.837 69.837 0 0 1 24.803-.103l4.945 25.598h-34.201zm-5.441 1.238-4.064 23.264-22.762-9.1a69.066 69.066 0 0 1 26.826-14.164zm-6.655 27.772-14.366 14.365-9.512-23.912zm-27.942-5.836 9.077 22.816-23.372 4.514a69.079 69.079 0 0 1 14.295-27.33zm-16.555 44.933c0-4.137.365-8.189 1.06-12.125l25.597-4.946v34.2l-25.496-4.452a69.687 69.687 0 0 1 -1.161-12.677zm2.399 18.116 23.265 4.064-9.1 22.763a69.1 69.1 0 0 1 -14.165-26.827zm27.773 6.656 14.365 14.365-23.913 9.513zm-5.836 27.943 22.815-9.077 4.516 23.372a69.082 69.082 0 0 1 -27.331-14.295zm57.609 15.393a69.757 69.757 0 0 1 -12.676 1.16 69.73 69.73 0 0 1 -12.127-1.059l-4.945-25.598h34.2zm5.44-1.238 4.064-23.266 22.763 9.102a69.097 69.097 0 0 1 -26.827 14.164zm6.655-27.773 14.364-14.365 9.515 23.913zm27.944 5.835-9.077-22.816 23.371-4.515a69.074 69.074 0 0 1 -14.294 27.331zm15.494-32.806-25.597 4.946v-34.2l25.496 4.452a69.757 69.757 0 0 1 1.16 12.676c0 4.137-.364 8.188-1.059 12.126z"/></svg>