<svg height="226.777" viewBox="0 0 226.777 226.777" width="226.777" xmlns="http://www.w3.org/2000/svg"><path d="m82.959 61.139-30.401 52.271 30.401 52.273h60.406l30.803-52.418-31.318-52.126zm58.774 80.191h-57.067v-12.407h44.658v-32.248h-10.248v22.941h-34.41v-12.411h21.999v-10.53h-21.999v-12.411h57.067z"/><path d="m113.411 0c-62.635 0-113.411 50.776-113.411 113.41 0 62.635 50.776 113.411 113.411 113.411s113.41-50.775 113.41-113.411c0-62.634-50.775-113.41-113.41-113.41zm38.346 180.348h-77.232l-38.933-66.938 38.934-66.938h76.621l40.084 66.709z"/></svg>