<svg height="226.777" viewBox="0 0 226.777 226.777" width="226.777" xmlns="http://www.w3.org/2000/svg"><path d="m98.626 87.318c-5.299 0-9.609 4.312-9.609 9.608 0 5.3 4.311 9.611 9.609 9.611s9.608-4.311 9.608-9.611c.001-5.297-4.31-9.608-9.608-9.608zm29.526-10.133c5.299 0 9.609-4.31 9.609-9.609 0-5.298-4.311-9.61-9.609-9.61s-9.609 4.312-9.609 9.61c0 5.299 4.31 9.609 9.609 9.609zm0 62.275c5.299 0 9.609-4.311 9.609-9.61s-4.311-9.609-9.609-9.609-9.609 4.311-9.609 9.609c0 5.299 4.31 9.61 9.609 9.61z"/><path d="m113.389 0c-62.622 0-113.389 50.767-113.389 113.389s50.767 113.388 113.389 113.388c62.623 0 113.388-50.767 113.388-113.388 0-62.622-50.766-113.389-113.388-113.389zm-50.928 63.382h48.208c1.897-7.903 9.006-13.802 17.483-13.802 9.922 0 17.994 8.073 17.994 17.996s-8.072 17.995-17.994 17.995c-8.477 0-15.585-5.899-17.483-13.802h-39.822v53.887h39.822c1.897-7.902 9.006-13.802 17.483-13.802 9.922 0 17.994 8.073 17.994 17.995 0 9.923-8.072 17.996-17.994 17.996-8.477 0-15.585-5.899-17.483-13.803h-48.208v-70.66zm101.857 100.012h-48.209c-1.898 7.903-9.006 13.803-17.483 13.803-9.923 0-17.995-8.073-17.995-17.997 0-9.922 8.072-17.995 17.995-17.995 8.477 0 15.584 5.898 17.483 13.802h39.822v-53.887h-39.822c-1.898 7.904-9.006 13.803-17.483 13.803-9.923 0-17.995-8.073-17.995-17.997 0-9.922 8.072-17.994 17.995-17.994 8.477 0 15.584 5.897 17.483 13.802h48.209z"/><path d="m98.626 149.592c-5.299 0-9.609 4.311-9.609 9.608 0 5.301 4.311 9.611 9.609 9.611s9.608-4.311 9.608-9.611c.001-5.298-4.31-9.608-9.608-9.608z"/></svg>