<svg height="226.777" viewBox="0 0 226.777 226.777" width="226.777" xmlns="http://www.w3.org/2000/svg"><path d="m113.369 0c-62.612 0-113.369 50.757-113.369 113.369 0 62.611 50.757 113.369 113.369 113.369 62.611 0 113.369-50.758 113.369-113.369 0-62.612-50.758-113.369-113.369-113.369zm27.514 71.849c0 .061-.008.119-.003.181l3.701 40.998-28.032-41.179zm-26.78 3.553 29.375 43.153h-59.21zm-27.144-3.553h24.714l-28.527 41.26 3.813-41.074c.006-.063 0-.123 0-.186zm-6.525 0h2.505l-4.295 46.27-29.644-6.456zm-30.227 44.193 28.91 6.295 29.593 52.836zm33.64 6.534h59.958l-29.836 53.79zm35.436 52.617 29.293-52.849 29.374-6.289zm29.795-57.068-4.178-46.276h2.38l31.933 39.825z"/></svg>