<svg height="226.777" viewBox="0 0 226.777 226.777" width="226.777" xmlns="http://www.w3.org/2000/svg"><path d="m61.354 106.638h103.166l-51.181-75.188zm51.75 100.725 51.982-93.719h-104.465zm-4.001-182.103h-43.063c0 .109.013.214.003.324l-6.645 71.566zm8.495 0 48.842 71.749-6.449-71.433c-.009-.107.005-.209.005-.315h-42.398zm55.803 87.98-51.038 92.082 102.217-103.04zm-121.848-7.363 7.486-80.617h-4.365l-54.77 69.37zm-49.545-3.619 101.933 103.027-51.562-92.058zm172.267 3.631 52.507-11.242-55.64-69.387h-4.146z"/></svg>