<svg enable-background="new 0 0 226.8 226.8" viewBox="0 0 226.8 226.8" xmlns="http://www.w3.org/2000/svg"><path d="m150.536 91.192-3.278 3.278c2.608 4.098 3.427 9.239 1.639 14.156-2.98 8.345-12.219 12.741-20.639 9.76-1.192-.447-2.31-.969-3.278-1.639l-10.506 10.506-9.164-9.239c-4.247 2.831-9.686 3.651-14.827 1.863-8.643-3.129-13.113-12.592-9.984-21.16.447-1.341 1.118-2.533 1.863-3.651l-3.949-3.949-.745 1.267c-4.098 6.706-6.333 14.454-6.333 22.427-.075 23.768 19.297 43.214 43.065 43.214h.075c23.768 0 43.065-19.297 43.14-43.065 0-7.898-2.161-15.647-6.259-22.427z"/><path d="m87.205 99.909c-1.118 1.49-1.788 3.353-1.788 5.365 0 4.843 3.949 8.792 8.792 8.792 2.012 0 3.874-.671 5.365-1.863z"/><path d="m130.345 111.458c1.416.969 3.055 1.49 4.917 1.49 4.843 0 8.792-3.949 8.792-8.792 0-1.788-.522-3.502-1.49-4.917z"/><path d="m114.624 120.697-35.615-35.764 1.416-1.49c8.792-9.313 20.788-14.529 33.677-14.529h.075c13.039 0 25.556 5.588 34.273 15.274l1.341 1.49zm-29.803-35.764 29.803 29.877 29.43-29.281c-7.898-7.898-18.627-12.443-29.803-12.443h-.075c-11.101 0-21.458 4.173-29.355 11.847z"/><path d="m75.358 143.719-4.172-.298c-17.733-1.118-42.171-5.514-57.967-19.744-9.76-8.717-11.623-16.988-11.698-17.36l-.521-2.534h64.523l-.373 2.384c-.298 2.161-.447 4.396-.447 6.557 0 9.835 2.831 19.372 8.27 27.493z"/><path d="m153.442 143.719 2.31-3.502c5.439-8.121 8.27-17.584 8.27-27.344 0-2.235-.149-4.545-.447-6.706l-.298-2.384h64.523l-.522 2.533c-.075.373-1.937 8.643-11.623 17.36-15.796 14.231-40.308 18.627-58.041 19.744z"/></svg>