<svg enable-background="new 0 0 226.8 226.8" viewBox="0 0 226.8 226.8" xmlns="http://www.w3.org/2000/svg"><circle cx="131.285" cy="135.797" r="6.026"/><circle cx="144.732" cy="123.277" r="6.494"/><circle cx="156.2" cy="105.551" r="7.436"/><circle cx="163.636" cy="81.51" r="10.667"/><circle cx="167.749" cy="52.294" r="11.549"/><circle cx="164.518" cy="18.372" r="14.281"/><ellipse cx="145.778" cy="148.283" rx="5.164" ry="5.164" transform="matrix(.2318 -.9728 .9728 .2318 -32.2594 255.7165)"/><ellipse cx="159.475" cy="140.518" rx="5.565" ry="5.565" transform="matrix(.2318 -.9728 .9728 .2318 -14.1827 263.0754)"/><ellipse cx="172.556" cy="128.019" rx="6.372" ry="6.372" transform="matrix(.2318 -.9728 .9728 .2318 8.0242 266.1993)"/><ellipse cx="183.531" cy="109.454" rx="9.141" ry="9.141" transform="matrix(.2318 -.9728 .9728 .2318 34.5126 262.6125)"/><ellipse cx="192.763" cy="85.917" rx="9.897" ry="9.897" transform="matrix(.2318 -.9728 .9728 .2318 64.5027 253.5133)"/><ellipse cx="196.809" cy="56.996" rx="12.239" ry="12.239" transform="matrix(.2318 -.9728 .9728 .2318 95.7437 235.2325)"/><ellipse cx="158.118" cy="161.14" rx="4.363" ry="4.362" transform="matrix(.4309 -.9024 .9024 .4309 -55.4264 234.3951)"/><ellipse cx="170.809" cy="157.156" rx="4.702" ry="4.702" transform="matrix(.4309 -.9024 .9024 .4309 -44.6083 243.5789)"/><ellipse cx="183.83" cy="149.153" rx="5.383" ry="5.383" transform="matrix(.4309 -.9024 .9024 .4309 -29.9747 250.7773)"/><ellipse cx="196.187" cy="135.766" rx="7.722" ry="7.722" transform="matrix(.4309 -.9024 .9024 .4309 -10.8618 254.309)"/><ellipse cx="207.988" cy="117.962" rx="8.361" ry="8.361" transform="matrix(.4309 -.9024 .9024 .4309 11.9196 254.8248)"/><ellipse cx="216.459" cy="94.793" rx="10.339" ry="10.339" transform="matrix(.4309 -.9024 .9024 .4309 37.6481 249.2826)"/><ellipse cx="132.593" cy="92.337" rx="6.026" ry="6.026" transform="matrix(.866 -.5 .5 .866 -28.4042 78.6656)"/><ellipse cx="115.027" cy="86.951" rx="6.494" ry="6.494" transform="matrix(.866 -.5 .5 .866 -28.0649 69.1618)"/><ellipse cx="93.942" cy="85.883" rx="7.436" ry="7.436" transform="matrix(.866 -.5 .5 .866 -30.3555 58.4772)"/><ellipse cx="69.404" cy="91.464" rx="10.667" ry="10.667" transform="matrix(.866 -.5 .5 .866 -36.4338 46.9558)"/><ellipse cx="42.046" cy="102.51" rx="11.549" ry="11.549" transform="matrix(.866 -.5 .5 .866 -45.6222 34.757)"/><ellipse cx="14.284" cy="122.269" rx="14.281" ry="14.281" transform="matrix(.866 -.5 .5 .866 -59.2211 23.5231)"/><ellipse cx="136.16" cy="73.543" rx="5.164" ry="5.164" transform="matrix(.9583 -.2856 .2856 .9583 -15.3333 41.9541)"/><ellipse cx="122.586" cy="65.563" rx="5.565" ry="5.565" transform="matrix(.9583 -.2856 .2856 .9583 -13.6199 37.7458)"/><ellipse cx="105.222" cy="60.484" rx="6.372" ry="6.372" transform="matrix(.9583 -.2856 .2856 .9583 -12.8925 32.5745)"/><ellipse cx="83.657" cy="60.262" rx="9.141" ry="9.141" transform="matrix(.9583 -.2856 .2856 .9583 -13.7273 26.4049)"/><ellipse cx="58.657" cy="64.035" rx="9.897" ry="9.897" transform="matrix(.9583 -.2856 .2856 .9583 -15.8468 19.4217)"/><ellipse cx="31.588" cy="74.992" rx="12.239" ry="12.239" transform="matrix(.9583 -.2856 .2856 .9583 -20.1039 12.1466)"/><ellipse cx="141.125" cy="56.427" rx="4.362" ry="4.362" transform="matrix(.997 -.078 .078 .997 -3.9731 11.1852)"/><ellipse cx="131.328" cy="47.429" rx="4.702" ry="4.702" transform="matrix(.997 -.078 .078 .997 -3.3009 10.3938)"/><ellipse cx="117.887" cy="40.154" rx="5.383" ry="5.383" transform="matrix(.9969 -.078 .078 .9969 -2.7743 9.3235)"/><ellipse cx="100.115" cy="36.146" rx="7.722" ry="7.722" transform="matrix(.9969 -.078 .078 .9969 -2.5157 7.9242)"/><ellipse cx="78.797" cy="34.828" rx="8.361" ry="8.361" transform="matrix(.9969 -.078 .078 .9969 -2.4778 6.256)"/><ellipse cx="54.496" cy="39.076" rx="10.339" ry="10.339" transform="matrix(.9969 -.078 .078 .9969 -2.8835 4.3724)"/><ellipse cx="94.517" cy="114.325" rx="6.026" ry="6.026" transform="matrix(.5 -.866 .866 .5 -51.7499 139.0171)"/><ellipse cx="98.637" cy="132.231" rx="6.494" ry="6.494" transform="matrix(.5 -.866 .866 .5 -65.1972 151.5374)"/><ellipse cx="108.254" cy="151.025" rx="7.436" ry="7.436" transform="matrix(.5 -.866 .866 .5 -76.665 169.2629)"/><ellipse cx="125.356" cy="169.486" rx="10.667" ry="10.667" transform="matrix(.5 -.866 .866 .5 -84.1006 193.3045)"/><ellipse cx="148.601" cy="187.655" rx="11.549" ry="11.549" transform="matrix(.5 -.866 .866 .5 -88.2137 222.5205)"/><ellipse cx="179.594" cy="201.818" rx="14.281" ry="14.281" transform="matrix(.5 -.866 .866 .5 -84.9829 256.442)"/><ellipse cx="76.457" cy="120.633" rx="5.164" ry="5.164" transform="matrix(.6871 -.7265 .7265 .6871 -63.7228 93.2908)"/><ellipse cx="76.334" cy="136.378" rx="5.565" ry="5.565" transform="matrix(.6871 -.7265 .7265 .6871 -75.2005 98.127)"/><ellipse cx="80.618" cy="153.956" rx="6.372" ry="6.372" transform="matrix(.6871 -.7265 .7265 .6871 -86.631 106.7377)"/><ellipse cx="91.208" cy="172.743" rx="9.141" ry="9.141" transform="matrix(.6871 -.7265 .7265 .6871 -96.967 120.3108)"/><ellipse cx="106.976" cy="192.507" rx="9.897" ry="9.897" transform="matrix(.6871 -.7265 .7265 .6871 -106.3933 137.9504)"/><ellipse cx="129.999" cy="210.471" rx="12.239" ry="12.239" transform="matrix(.6871 -.7265 .7265 .6871 -112.2412 160.2976)"/><ellipse cx="59.153" cy="124.892" rx="4.363" ry="4.362" transform="matrix(.8244 -.5661 .5661 .8244 -60.3086 55.4223)"/><ellipse cx="56.258" cy="137.875" rx="4.701" ry="4.701" transform="matrix(.8244 -.5661 .5661 .8244 -68.1656 56.0631)"/><ellipse cx="56.678" cy="153.153" rx="5.383" ry="5.383" transform="matrix(.8244 -.5661 .5661 .8244 -76.74 58.9841)"/><ellipse cx="62.093" cy="170.548" rx="7.722" ry="7.722" transform="matrix(.8244 -.5661 .5661 .8244 -85.6357 65.1046)"/><ellipse cx="71.611" cy="189.669" rx="8.361" ry="8.361" transform="matrix(.8244 -.5661 .5661 .8244 -94.7878 73.8507)"/><ellipse cx="87.441" cy="208.59" rx="10.339" ry="10.339" transform="matrix(.8244 -.5661 .5661 .8244 -102.7176 86.1344)"/></svg>