<svg viewBox="0 0 226.8 226.8" xmlns="http://www.w3.org/2000/svg"><g clip-rule="evenodd" fill-rule="evenodd"><path d="m195.309 37.615-5.776-5.777c-17.77-7.438-35.536-14.89-53.312-22.316l-14.66-6.136-4.06-1.682-4.101-1.7-4.102 1.7-4.059 1.682-14.659 6.137c-17.776 7.426-35.543 14.878-53.312 22.316l-5.777 5.777-31.491 75.783 31.491 75.784 5.777 5.777c25.373 10.621 50.725 21.299 76.133 31.836 25.408-10.537 50.759-21.215 76.132-31.836l5.776-5.777 31.491-75.784zm-34.436 123.257-47.473 19.665-47.473-19.664-19.664-47.473 19.664-47.472 47.473-19.666 47.472 19.665 19.665 47.472z"/><path d="m113.4 65.927-33.568 13.905-13.905 33.568 13.905 33.567 33.568 13.906 33.568-13.906 13.905-33.567-13.905-33.568z"/></g></svg>