<svg height="226.777" viewBox="0 0 226.777 226.777" width="226.777" xmlns="http://www.w3.org/2000/svg"><path d="m112.951 149.841 12.2-20.604h-23.92z"/><path d="m198.826 82.449-16.211-72.626-31.669 49.976c-11.752-2.878-24.376-4.459-37.532-4.459-13.159 0-25.78 1.581-37.532 4.459l-31.672-49.976-16.211 72.626c-17.419 13.912-27.999 32.107-27.999 52.03 0 43.707 50.775 79.139 113.414 79.139 62.637 0 113.414-35.432 113.414-79.139 0-19.923-10.581-38.118-28.002-52.03zm-148.478 33.265h-7.619l18.443-21.25h13.521zm62.447 51.892-31.383-55.166 7.749-4.408 6.992 12.287h34.276l7.314-12.354 7.672 4.544zm63.683-51.892-24.343-21.25h13.521l18.439 21.25z"/></svg>