<svg height="226.777" viewBox="0 0 226.777 226.777" width="226.777" xmlns="http://www.w3.org/2000/svg"><path d="m113.364 0c-62.609 0-113.364 50.755-113.364 113.363 0 62.61 50.755 113.365 113.364 113.365s113.364-50.755 113.364-113.365c0-62.608-50.755-113.363-113.364-113.363zm-33.502 162.818h-13.941v-41.28l13.941-4.292zm23.792 0h-13.942v-48.629l13.942-4.293zm23.79 0h-13.941v-55.938l13.941-4.293zm33.018-68.667-1.874-6.659-7.352 2.263v73.063h-13.941v-68.77l-91.767 28.262-1.25-4.022 110.356-48.136-1.596-6.244 29.411 3.747z"/></svg>