<svg height="595.281" viewBox="0 0 595.279 595.281" width="595.279" xmlns="http://www.w3.org/2000/svg"><path d="m297.619.001c-164.37 0-297.619 133.249-297.619 297.617 0 164.373 133.249 297.622 297.619 297.622s297.62-133.249 297.62-297.622c0-164.368-133.25-297.617-297.62-297.617zm30.4 161.702v26.361l-45.637-26.361zm-57.998 0 57.998 33.504v34.216l-117.129-67.72zm-78.458 270.975h-29.631v-270.975h29.631zm35.815 0h-29.631v-270.975l130.273 74.864v34.222l-100.642-58.146zm39.841 0v-26.361l45.634 26.361zm57.998 0-57.998-33.505v-34.217l117.129 67.722zm72.272 0-130.27-74.864v-34.228l100.642 58.151v-220.034h29.628zm35.814 0h-29.628v-270.975h29.628z"/></svg>