<svg height="226.777" viewBox="0 0 226.777 226.777" width="226.777" xmlns="http://www.w3.org/2000/svg"><path d="m113.533.289c-62.543 0-113.244 50.701-113.244 113.244s50.701 113.244 113.244 113.244 113.244-50.701 113.244-113.244-50.701-113.244-113.244-113.244zm-29.57 61.926 27.613 15.943-27.613 15.943zm-30.64 17.738 27.614 15.944-27.614 15.943zm0 35.479 27.614 15.943-27.614 15.945zm28.534 49.628-27.614-15.943 27.614-15.944zm0-35.479-27.614-15.944 27.614-15.943zm0-35.48-27.615-15.943 27.614-15.943v31.886zm2.106 38.862 27.613 15.944-27.613 15.944zm28.464 49.552-27.614-15.943 27.614-15.944zm0-106.078-27.614-15.944 27.614-15.942zm32.782-14.222 27.615 15.943-27.615 15.943zm0 35.479 27.615 15.943-27.615 15.944zm-30.571-53.143 27.614 15.942-27.614 15.944zm0 137.964v-31.888l27.614 15.944zm28.465-17.664-27.613-15.944 27.613-15.944zm0-70.75-27.613-15.943 27.613-15.943zm2.106 70.959v-31.888l27.615 15.944zm28.534-17.74-27.615-15.944 27.615-15.943zm0-35.48-27.615-15.943 27.615-15.944z"/></svg>