<svg enable-background="new 0 0 226.8 226.8" viewBox="0 0 226.8 226.8" xmlns="http://www.w3.org/2000/svg"><path d="m176.011 103.577c28.602 0 51.788-23.186 51.788-51.788s-23.186-51.789-51.788-51.789-51.788 23.186-51.788 51.788c0 39.452-31.982 71.434-71.434 71.434-28.603.001-51.789 23.188-51.789 51.79s23.186 51.788 51.788 51.788 51.788-23.186 51.788-51.788c.001-39.453 31.983-71.435 71.435-71.435zm0-67.401c8.622 0 15.612 6.99 15.612 15.612s-6.99 15.612-15.612 15.612-15.612-6.99-15.612-15.612 6.99-15.612 15.612-15.612zm-123.223 154.448c-8.623 0-15.612-6.99-15.612-15.612s6.99-15.612 15.612-15.612 15.612 6.99 15.612 15.612c.001 8.622-6.989 15.612-15.612 15.612z"/><path d="m176.012 123.223c-28.602 0-51.788 23.186-51.788 51.788s23.186 51.789 51.788 51.789 51.788-23.186 51.788-51.788-23.186-51.789-51.788-51.789zm0 67.401c-8.622 0-15.612-6.99-15.612-15.612s6.99-15.612 15.612-15.612 15.612 6.99 15.612 15.612-6.99 15.612-15.612 15.612z"/><path d="m52.788 103.577c28.602 0 51.788-23.186 51.788-51.788s-23.186-51.789-51.788-51.789-51.788 23.186-51.788 51.788 23.186 51.789 51.788 51.789zm0-67.401c8.622 0 15.612 6.99 15.612 15.612s-6.99 15.612-15.612 15.612-15.612-6.99-15.612-15.612 6.99-15.612 15.612-15.612z"/></svg>