<svg enable-background="new 0 0 226.8 226.8" viewBox="0 0 226.8 226.8" xmlns="http://www.w3.org/2000/svg"><circle cx="146.51" cy="145.51" r="8.137"/><circle cx="82.29" cy="145.51" r="8.137"/><path d="m114.4 0c-62.6 0-113.4 50.8-113.4 113.4s50.8 113.4 113.4 113.4 113.4-50.8 113.4-113.4-50.8-113.4-113.4-113.4zm-32.11 54.3c14.906 0 26.99 12.084 26.99 26.99s-12.084 26.99-26.99 26.99-26.99-12.084-26.99-26.99 12.084-26.99 26.99-26.99zm26.991 91.21c0 14.906-12.084 26.99-26.99 26.99s-26.99-12.084-26.99-26.99 12.084-26.99 26.99-26.99c20.561 0 37.229-16.668 37.229-37.229 0-14.906 12.084-26.99 26.99-26.99s26.99 12.084 26.99 26.99-12.084 26.99-26.99 26.99c-20.561 0-37.229 16.668-37.229 37.229zm37.229 26.99c-14.906 0-26.99-12.084-26.99-26.99s12.084-26.99 26.99-26.99 26.99 12.084 26.99 26.99-12.084 26.99-26.99 26.99z"/><circle cx="146.51" cy="81.29" r="8.137"/><circle cx="82.29" cy="81.29" r="8.137"/></svg>