<svg viewBox="0 0 226.8 226.8" xmlns="http://www.w3.org/2000/svg"><path d="m167.1 57.1c7.4 7.4 13.4 15.5 17.7 21.8h1.2c22.5 0 40.8-17.2 40.8-38.5s-18.2-38.5-40.8-38.5c-22 0-40 16.5-40.7 37.1 5.9 4.2 14 10.3 21.8 18.1zm-97.4 161c7.4 2.8 15.1 4.8 23.1 5.9l-8.8-18.5zm53.9-153.4-6-55.4c-3.1-.3-6.3-.4-9.6-.4-37.7 0-70.8 19.3-90.2 48.5l17 35.4zm-38.2 133.8 48.2-42.6-9.5-86.8-87.4 27.7z"/><path d="m211.8 86.6c-.7-2.2-1.4-4.5-2.2-6.7-3.3 1.8-6.8 3.3-10.5 4.3.9 1.8 1.6 3.2 2 4.2.6 1.3.1 2.8-1.1 3.6l-7.2 5c-.5.4-1.1.5-1.7.5-.2 0-.4 0-.7-.1-.8-.2-1.5-.7-2-1.4-3.4-6-12.9-21.3-26.2-34.6-13.4-13.4-27.5-22.4-32.9-25.6-1.3-.7-1.8-2.3-1.3-3.6l2.7-7.3c.3-.8.9-1.4 1.7-1.8.8-.3 1.6-.3 2.4 0 1.4.6 3.3 1.5 5.7 2.9 1.3-3.7 3.1-7.1 5.3-10.3-7.6-2.8-15.5-4.8-23.8-5.9l15.5 142.6zm-124.5 115.9 10.6 22.1c3.4.3 6.8.5 10.2.5 11.3 0 22.2-1.7 32.5-5l-6.4-59.1zm50.7-44.9 6.6 61.1c41.7-15 71.5-54.9 71.5-101.7 0-8.9-1.1-17.6-3.1-25.8zm-122.8-95.9c-7.5 12.6-12.5 26.8-14.4 42l29.9-9.5zm17.4 36.4-32.2 10.2c-.2 2.9-.4 5.8-.4 8.7 0 44.5 26.9 82.7 65.3 99.3l16.7-14.8z"/></svg>