<svg height="226.777" viewBox="0 0 226.777 226.777" width="226.777" xmlns="http://www.w3.org/2000/svg"><path d="m213.435 68.76c-.002-.042-.008-.083-.008-.126a7.162 7.162 0 0 0 -.141-1.25l-.002-.002a6.936 6.936 0 0 0 -1.06-2.491 7.137 7.137 0 0 0 -.85-1.022l-.051-.048a6.937 6.937 0 0 0 -1.049-.842.14.14 0 0 1 -.018-.017l-96.674-62.962-97.052 62.955.001.006a6.985 6.985 0 0 0 -3.192 5.867v89.124c0 .026.005.053.005.078 0 .044.006.092.006.137.014.422.058.837.143 1.237l.006.02a6.938 6.938 0 0 0 1.039 2.445c.01.015.021.027.029.04.249.363.531.7.843 1.011.019.019.04.034.058.053.32.311.668.59 1.041.833.008.007.014.015.023.021l97.051 62.949 96.676-62.956v-.004a6.996 6.996 0 0 0 3.18-5.864v-89.123c-.002-.024-.004-.046-.004-.069zm-186.091 11.188 148.258 71.003h-148.258zm23.832-4.116h148.256v71.003zm131.677-14.005h-138.849l69.564-45.124zm-69.285 148.245-69.564-45.116h138.848z"/></svg>