<svg viewBox="0 0 226.8 226.8" xmlns="http://www.w3.org/2000/svg"><path d="m120.4 226.6c8.2-3.4 15.9-8 21.3-14.1 17-19.5 23.8-54.9-4-75-14.4-10.4-33.7-15.1-54.2-24.7s-32.2-25-35.6-45.5c-2.8-16.9-1.7-39.5 21.2-58.3-40.6 17.2-69.1 57.5-69.1 104.4 0 62.6 50.8 113.4 113.4 113.4 2.4 0 4.7-.1 7-.2z"/><path d="m164.1 11.9 4 43.6-6.6 1.9s-8.7-30.7-27-42-52.1-11.6-62 13.2 1.8 50.5 38.4 60.5 70.3 22.1 67.9 74.7c-1.8 39.4-24.5 53.5-40.3 60.1 50.6-11.4 88.4-56.6 88.4-110.6-.1-44.3-25.6-82.8-62.8-101.4z"/></svg>