<svg viewBox="0 0 226.8 226.8" xmlns="http://www.w3.org/2000/svg"><path d="m113.4 0c-62.6 0-113.4 50.8-113.4 113.4s50.8 113.4 113.4 113.4 113.4-50.8 113.4-113.4-50.8-113.4-113.4-113.4zm-32.1 57.6 30 17.3-30 17.3zm-33.3 19.3 30 17.3-30 17.3zm0 38.6 30 17.3-30 17.3zm31 53.9-30-17.4 30-17.3zm0-38.6-30-17.3 30-17.3zm0-38.5-30-17.3 30-17.3zm2.3 42.2 30 17.3-30 17.3zm30.9 53.8-30-17.3 30-17.3zm0-115.2-30-17.3 30-17.3zm35.6-15.5 30 17.3-30 17.3zm0 38.6 30 17.3-30 17.3zm-33.2-57.7 30 17.3-30 17.3zm0 149.8v-34.6l30 17.3zm30.9-19.2-30-17.3 30-17.3zm0-38.3-30-17.3 30-17.3zm0-38.5-30-17.3 30-17.3zm2.3 77.1v-34.6l30 17.3zm31-19.3-30-17.3 30-17.3zm0-38.5-30-17.3 30-17.3z"/></svg>