<svg height="226.777" viewBox="0 0 226.777 226.777" width="226.777" xmlns="http://www.w3.org/2000/svg"><path d="m210.49 54.537-91.335 129.297s-1.766 2.699-5.347 2.699c-3.584 0-5.921-2.855-5.921-2.855l-15.757-20.897 94.899-135.729c-19.808-16.867-45.48-27.052-73.535-27.052-62.681 0-113.494 50.813-113.494 113.494s50.813 113.494 113.494 113.494 113.494-50.813 113.494-113.494c0-21.591-6.03-41.774-16.498-58.957zm-181.532 56.08 9.892-11.069 8.347 11.069zm12.856-14.385.23-.259h44.709l24.468 31.878-21.854 31.27z"/></svg>