<svg height="226.777" viewBox="0 0 226.777 226.777" width="226.777" xmlns="http://www.w3.org/2000/svg"><path d="m113.366 0c-62.61 0-113.366 50.756-113.366 113.366 0 62.612 50.756 113.368 113.367 113.368 62.612 0 113.368-50.756 113.368-113.368-.001-62.61-50.757-113.366-113.369-113.366zm58.073 75.955-7.748 7.75-7.749-7.75 7.749-7.75zm3.147 38.324-7.749 7.747-28.481-28.481 7.747-7.752zm-18.376-54.679-46.46 46.461-7.754-7.746 46.467-46.466zm-42.675-6.711 7.749 7.75-28.478 28.48-7.752-7.748zm-38.319 3.146 7.75 7.748-7.75 7.751-7.749-7.751zm-16.357 15.23 46.462 46.459-7.747 7.755-46.465-46.466zm1.039 34.926 28.48 28.48-7.747 7.752-28.482-28.486zm-4.604 46.069 7.749-7.75 7.749 7.75-7.749 7.748zm15.229 16.358 46.463-46.463 7.753 7.746-46.468 46.466zm42.675 6.71-7.75-7.752 28.481-28.479 7.751 7.746zm38.32-3.149-7.75-7.749 7.75-7.748 7.75 7.748zm16.358-15.228-46.463-46.462 7.746-7.752 46.467 46.467z"/></svg>