<svg height="226.777" viewBox="0 0 226.777 226.777" width="226.777" xmlns="http://www.w3.org/2000/svg"><path d="m113.417 0c-62.638 0-113.417 50.779-113.417 113.417s50.779 113.417 113.417 113.417 113.417-50.779 113.417-113.417-50.779-113.417-113.417-113.417zm-40.473 157.51-34.157-84.827 68.313 111.955zm36.916 17.574-68.312-111.956 43.394 36.392-14.536-32.111 27.312 22.906-12.361-23.773 24.503 20.549zm7.113-87.993 24.504-20.549-12.362 23.773 27.313-22.906-14.536 32.111 43.395-36.393-68.313 111.956v-87.992zm36.918 70.419-34.157 27.128 68.313-111.955z"/></svg>