<?xml version="1.0" standalone="no"?>
<!DOCTYPE svg PUBLIC "-//W3C//DTD SVG 20010904//EN"
 "http://www.w3.org/TR/2001/REC-SVG-20010904/DTD/svg10.dtd">
<svg version="1.0" xmlns="http://www.w3.org/2000/svg"
 width="262.000000pt" height="262.000000pt" viewBox="0 0 262.000000 262.000000"
 preserveAspectRatio="xMidYMid meet">
<metadata>
Created by potrace 1.11, written by Peter Selinger 2001-2013
</metadata>
<g transform="translate(0.000000,262.000000) scale(0.100000,-0.100000)"
fill="#000000" stroke="none">
<path d="M426 2608 c4 -7 72 -96 150 -198 78 -102 307 -408 509 -680 202 -272
388 -523 414 -557 25 -34 54 -72 63 -85 9 -13 85 -115 169 -228 84 -113 256
-344 382 -515 127 -171 236 -317 244 -325 11 -12 13 196 13 1293 l0 1307 -153
0 -152 0 0 -932 c1 -513 0 -936 -2 -940 -3 -6 -883 1157 -998 1318 -16 23
-117 157 -223 298 l-194 256 -114 0 c-90 0 -114 -3 -108 -12z"/>
<path d="M250 1305 l0 -1306 153 3 152 3 1 925 c1 509 2 931 3 938 0 7 25 -20
55 -60 30 -40 59 -77 63 -83 5 -5 298 -396 652 -867 l643 -858 115 0 c89 0
113 3 107 13 -6 9 -275 362 -307 402 -4 6 -69 93 -145 195 -75 102 -207 280
-293 395 -85 116 -209 282 -274 370 -65 88 -248 333 -405 545 -157 212 -337
454 -399 538 -62 83 -115 152 -117 152 -2 0 -4 -587 -4 -1305z"/>
</g>
</svg>
