<svg viewBox="0 0 884 327.5" xmlns="http://www.w3.org/2000/svg" xmlns:xlink="http://www.w3.org/1999/xlink"><linearGradient id="a" gradientUnits="userSpaceOnUse" x1="442" x2="442" y1="327.5"><stop offset="0" stop-color="#fc3" stop-opacity="0"/><stop offset=".42" stop-color="#fc3" stop-opacity=".25"/><stop offset=".74" stop-color="#fc3" stop-opacity=".44"/><stop offset=".94" stop-color="#fc3" stop-opacity=".5"/></linearGradient><path d="m882 327.5a2 2 0 0 1 -2-2v-323.5a2 2 0 0 1 4 0v323.5a2 2 0 0 1 -2 2zm-10 0a2 2 0 0 1 -2-2v-315.5a2 2 0 0 1 4 0v315.5a2 2 0 0 1 -2 2zm-10 0a2 2 0 0 1 -2-2v-319.5a2 2 0 0 1 4 0v319.5a2 2 0 0 1 -2 2zm-10 0a2 2 0 0 1 -2-2v-315.5a2 2 0 0 1 4 0v315.5a2 2 0 0 1 -2 2zm-10 0a2 2 0 0 1 -2-2v-317.5a2 2 0 0 1 4 0v317.5a2 2 0 0 1 -2 2zm-10 0a2 2 0 0 1 -2-2v-317.5a2 2 0 0 1 4 0v317.5a2 2 0 0 1 -2 2zm-10 0a2 2 0 0 1 -2-2v-304.5a2 2 0 0 1 4 0v304.5a2 2 0 0 1 -2 2zm-10 0a2 2 0 0 1 -2-2v-299.5a2 2 0 0 1 4 0v299.5a2 2 0 0 1 -2 2zm-10 0a2 2 0 0 1 -2-2v-303.5a2 2 0 0 1 4 0v303.5a2 2 0 0 1 -2 2zm-10 0a2 2 0 0 1 -2-2v-304.5a2 2 0 0 1 4 0v304.5a2 2 0 0 1 -2 2zm-10 0a2 2 0 0 1 -2-2v-301.5a2 2 0 0 1 4 0v301.5a2 2 0 0 1 -2 2zm-10 0a2 2 0 0 1 -2-2v-297.5a2 2 0 0 1 4 0v297.5a2 2 0 0 1 -2 2zm-10 0a2 2 0 0 1 -2-2v-294.5a2 2 0 0 1 4 0v294.5a2 2 0 0 1 -2 2zm-10 0a2 2 0 0 1 -2-2v-298.5a2 2 0 0 1 4 0v298.5a2 2 0 0 1 -2 2zm-10 0a2 2 0 0 1 -2-2v-294.5a2 2 0 0 1 4 0v294.5a2 2 0 0 1 -2 2zm-10 0a2 2 0 0 1 -2-2v-290.5a2 2 0 0 1 4 0v290.5a2 2 0 0 1 -2 2zm-10 0a2 2 0 0 1 -2-2v-280.5a2 2 0 0 1 4 0v280.5a2 2 0 0 1 -2 2zm-10 0a2 2 0 0 1 -2-2v-269.5a2 2 0 0 1 4 0v269.5a2 2 0 0 1 -2 2zm-10 0a2 2 0 0 1 -2-2v-275.5a2 2 0 0 1 4 0v275.5a2 2 0 0 1 -2 2zm-10 0a2 2 0 0 1 -2-2v-276.5a2 2 0 0 1 4 0v276.5a2 2 0 0 1 -2 2zm-10 0a2 2 0 0 1 -2-2v-270.5a2 2 0 0 1 4 0v270.5a2 2 0 0 1 -2 2zm-10 0a2 2 0 0 1 -2-2v-283.5a2 2 0 0 1 4 0v283.5a2 2 0 0 1 -2 2zm-10 0a2 2 0 0 1 -2-2v-277.5a2 2 0 0 1 4 0v277.5a2 2 0 0 1 -2 2zm-10 0a2 2 0 0 1 -2-2v-268.5a2 2 0 0 1 4 0v268.5a2 2 0 0 1 -2 2zm-10 0a2 2 0 0 1 -2-2v-269.5a2 2 0 0 1 4 0v269.5a2 2 0 0 1 -2 2zm-10 0a2 2 0 0 1 -2-2v-271.5a2 2 0 0 1 4 0v271.5a2 2 0 0 1 -2 2zm-10 0a2 2 0 0 1 -2-2v-261.5a2 2 0 0 1 4 0v261.5a2 2 0 0 1 -2 2zm-10 0a2 2 0 0 1 -2-2v-249.5a2 2 0 0 1 4 0v249.5a2 2 0 0 1 -2 2zm-10 0a2 2 0 0 1 -2-2v-261.5a2 2 0 0 1 4 0v261.5a2 2 0 0 1 -2 2zm-10 0a2 2 0 0 1 -2-2v-265.5a2 2 0 0 1 4 0v265.5a2 2 0 0 1 -2 2zm-10 0a2 2 0 0 1 -2-2v-269.5a2 2 0 0 1 4 0v269.5a2 2 0 0 1 -2 2zm-10 0a2 2 0 0 1 -2-2v-269.5a2 2 0 0 1 4 0v269.5a2 2 0 0 1 -2 2zm-10 0a2 2 0 0 1 -2-2v-263.5a2 2 0 0 1 4 0v263.5a2 2 0 0 1 -2 2zm-10 0a2 2 0 0 1 -2-2v-257.5a2 2 0 0 1 4 0v257.5a2 2 0 0 1 -2 2zm-10 0a2 2 0 0 1 -2-2v-260.5a2 2 0 0 1 4 0v260.5a2 2 0 0 1 -2 2zm-10 0a2 2 0 0 1 -2-2v-258.5a2 2 0 0 1 4 0v258.5a2 2 0 0 1 -2 2zm-10 0a2 2 0 0 1 -2-2v-262.5a2 2 0 0 1 4 0v262.5a2 2 0 0 1 -2 2zm-10 0a2 2 0 0 1 -2-2v-259.5a2 2 0 0 1 4 0v259.5a2 2 0 0 1 -2 2zm-10 0a2 2 0 0 1 -2-2v-259.5a2 2 0 0 1 4 0v259.5a2 2 0 0 1 -2 2zm-10 0a2 2 0 0 1 -2-2v-251.5a2 2 0 0 1 4 0v251.5a2 2 0 0 1 -2 2zm-10 0a2 2 0 0 1 -2-2v-244.5a2 2 0 0 1 4 0v244.5a2 2 0 0 1 -2 2zm-10 0a2 2 0 0 1 -2-2v-236.5a2 2 0 0 1 4 0v236.5a2 2 0 0 1 -2 2zm-10 0a2 2 0 0 1 -2-2v-238.5a2 2 0 0 1 4 0v238.5a2 2 0 0 1 -2 2zm-10 0a2 2 0 0 1 -2-2v-232.5a2 2 0 0 1 4 0v232.5a2 2 0 0 1 -2 2zm-10 0a2 2 0 0 1 -2-2v-234.5a2 2 0 0 1 4 0v234.5a2 2 0 0 1 -2 2zm-10 0a2 2 0 0 1 -2-2v-233.5a2 2 0 0 1 4 0v233.5a2 2 0 0 1 -2 2zm-10 0a2 2 0 0 1 -2-2v-237.5a2 2 0 0 1 4 0v237.5a2 2 0 0 1 -2 2zm-10 0a2 2 0 0 1 -2-2v-242.5a2 2 0 0 1 4 0v242.5a2 2 0 0 1 -2 2zm-10 0a2 2 0 0 1 -2-2v-244.5a2 2 0 0 1 4 0v244.5a2 2 0 0 1 -2 2zm-10 0a2 2 0 0 1 -2-2v-236.5a2 2 0 0 1 4 0v236.5a2 2 0 0 1 -2 2zm-10 0a2 2 0 0 1 -2-2v-229.5a2 2 0 0 1 4 0v229.5a2 2 0 0 1 -2 2zm-10 0a2 2 0 0 1 -2-2v-227.5a2 2 0 0 1 4 0v227.5a2 2 0 0 1 -2 2zm-10 0a2 2 0 0 1 -2-2v-233.5a2 2 0 0 1 4 0v233.5a2 2 0 0 1 -2 2zm-10 0a2 2 0 0 1 -2-2v-230.5a2 2 0 0 1 4 0v230.5a2 2 0 0 1 -2 2zm-10 0a2 2 0 0 1 -2-2v-223.5a2 2 0 0 1 4 0v223.5a2 2 0 0 1 -2 2zm-10 0a2 2 0 0 1 -2-2v-219.5a2 2 0 0 1 4 0v219.5a2 2 0 0 1 -2 2zm-10 0a2 2 0 0 1 -2-2v-216.5a2 2 0 0 1 4 0v216.5a2 2 0 0 1 -2 2zm-10 0a2 2 0 0 1 -2-2v-216.5a2 2 0 0 1 4 0v216.5a2 2 0 0 1 -2 2zm-10 0a2 2 0 0 1 -2-2v-197.5a2 2 0 0 1 4 0v197.5a2 2 0 0 1 -2 2zm-10 0a2 2 0 0 1 -2-2v-202.5a2 2 0 0 1 4 0v202.5a2 2 0 0 1 -2 2zm-10 0a2 2 0 0 1 -2-2v-207.5a2 2 0 0 1 4 0v207.5a2 2 0 0 1 -2 2zm-10 0a2 2 0 0 1 -2-2v-204.5a2 2 0 0 1 4 0v204.5a2 2 0 0 1 -2 2zm-10 0a2 2 0 0 1 -2-2v-202.5a2 2 0 0 1 4 0v202.5a2 2 0 0 1 -2 2zm-10 0a2 2 0 0 1 -2-2v-198.5a2 2 0 0 1 4 0v198.5a2 2 0 0 1 -2 2zm-10 0a2 2 0 0 1 -2-2v-192.5a2 2 0 0 1 4 0v192.5a2 2 0 0 1 -2 2zm-10 0a2 2 0 0 1 -2-2v-188.5a2 2 0 0 1 4 0v188.5a2 2 0 0 1 -2 2zm-10 0a2 2 0 0 1 -2-2v-193.5a2 2 0 0 1 4 0v193.5a2 2 0 0 1 -2 2zm-10 0a2 2 0 0 1 -2-2v-190.5a2 2 0 0 1 4 0v190.5a2 2 0 0 1 -2 2zm-10 0a2 2 0 0 1 -2-2v-196.5a2 2 0 0 1 4 0v196.5a2 2 0 0 1 -2 2zm-10 0a2 2 0 0 1 -2-2v-190.5a2 2 0 0 1 4 0v190.5a2 2 0 0 1 -2 2zm-10 0a2 2 0 0 1 -2-2v-191.5a2 2 0 0 1 4 0v191.5a2 2 0 0 1 -2 2zm-10 0a2 2 0 0 1 -2-2v-186.5a2 2 0 0 1 4 0v186.5a2 2 0 0 1 -2 2zm-10 0a2 2 0 0 1 -2-2v-185.5a2 2 0 0 1 4 0v185.5a2 2 0 0 1 -2 2zm-10 0a2 2 0 0 1 -2-2v-187.5a2 2 0 0 1 4 0v187.5a2 2 0 0 1 -2 2zm-10 0a2 2 0 0 1 -2-2v-187.5a2 2 0 0 1 4 0v187.5a2 2 0 0 1 -2 2zm-10 0a2 2 0 0 1 -2-2v-188.5a2 2 0 0 1 4 0v188.5a2 2 0 0 1 -2 2zm-10 0a2 2 0 0 1 -2-2v-180.5a2 2 0 0 1 4 0v180.5a2 2 0 0 1 -2 2zm-10 0a2 2 0 0 1 -2-2v-169.5a2 2 0 0 1 4 0v169.5a2 2 0 0 1 -2 2zm-10 0a2 2 0 0 1 -2-2v-164.5a2 2 0 0 1 4 0v164.5a2 2 0 0 1 -2 2zm-10 0a2 2 0 0 1 -2-2v-166.5a2 2 0 0 1 4 0v166.5a2 2 0 0 1 -2 2zm-10 0a2 2 0 0 1 -2-2v-164.5a2 2 0 0 1 4 0v164.5a2 2 0 0 1 -2 2zm-10 0a2 2 0 0 1 -2-2v-168.5a2 2 0 0 1 4 0v168.5a2 2 0 0 1 -2 2zm-10 0a2 2 0 0 1 -2-2v-164.5a2 2 0 0 1 4 0v164.5a2 2 0 0 1 -2 2zm-10 0a2 2 0 0 1 -2-2v-148.5a2 2 0 0 1 4 0v148.5a2 2 0 0 1 -2 2zm-10 0a2 2 0 0 1 -2-2v-162.5a2 2 0 0 1 4 0v162.5a2 2 0 0 1 -2 2zm-10 0a2 2 0 0 1 -2-2v-158.5a2 2 0 0 1 4 0v158.5a2 2 0 0 1 -2 2zm-10 0a2 2 0 0 1 -2-2v-150.5a2 2 0 0 1 4 0v150.5a2 2 0 0 1 -2 2zm-10 0a2 2 0 0 1 -2-2v-150.5a2 2 0 0 1 4 0v150.5a2 2 0 0 1 -2 2zm-10 0a2 2 0 0 1 -2-2v-150.5a2 2 0 0 1 4 0v150.5a2 2 0 0 1 -2 2z" fill="url(#a)"/></svg>