<svg xmlns="http://www.w3.org/2000/svg" xmlns:xlink="http://www.w3.org/1999/xlink" viewBox="0 0 884 327.5"><defs><style>.cls-1{fill:url(#linear-gradient);}</style><linearGradient id="linear-gradient" x1="442" y1="327.5" x2="442" gradientUnits="userSpaceOnUse"><stop offset="0" stop-color="#fc3" stop-opacity="0"/><stop offset="0.42" stop-color="#fc3" stop-opacity="0.25"/><stop offset="0.74" stop-color="#fc3" stop-opacity="0.44"/><stop offset="0.94" stop-color="#fc3" stop-opacity="0.5"/></linearGradient></defs><title>cartbar</title><g id="Layer_2" data-name="Layer 2"><g id="Layer_1-2" data-name="Layer 1"><path class="cls-1" d="M882,327.5a2,2,0,0,1-2-2V2a2,2,0,0,1,4,0V325.5A2,2,0,0,1,882,327.5Zm-10,0a2,2,0,0,1-2-2V10a2,2,0,0,1,4,0V325.5A2,2,0,0,1,872,327.5Zm-10,0a2,2,0,0,1-2-2V6a2,2,0,0,1,4,0V325.5A2,2,0,0,1,862,327.5Zm-10,0a2,2,0,0,1-2-2V10a2,2,0,0,1,4,0V325.5A2,2,0,0,1,852,327.5Zm-10,0a2,2,0,0,1-2-2V8a2,2,0,0,1,4,0V325.5A2,2,0,0,1,842,327.5Zm-10,0a2,2,0,0,1-2-2V8a2,2,0,0,1,4,0V325.5A2,2,0,0,1,832,327.5Zm-10,0a2,2,0,0,1-2-2V21a2,2,0,0,1,4,0V325.5A2,2,0,0,1,822,327.5Zm-10,0a2,2,0,0,1-2-2V26a2,2,0,0,1,4,0V325.5A2,2,0,0,1,812,327.5Zm-10,0a2,2,0,0,1-2-2V22a2,2,0,0,1,4,0V325.5A2,2,0,0,1,802,327.5Zm-10,0a2,2,0,0,1-2-2V21a2,2,0,0,1,4,0V325.5A2,2,0,0,1,792,327.5Zm-10,0a2,2,0,0,1-2-2V24a2,2,0,0,1,4,0V325.5A2,2,0,0,1,782,327.5Zm-10,0a2,2,0,0,1-2-2V28a2,2,0,0,1,4,0V325.5A2,2,0,0,1,772,327.5Zm-10,0a2,2,0,0,1-2-2V31a2,2,0,0,1,4,0V325.5A2,2,0,0,1,762,327.5Zm-10,0a2,2,0,0,1-2-2V27a2,2,0,0,1,4,0V325.5A2,2,0,0,1,752,327.5Zm-10,0a2,2,0,0,1-2-2V31a2,2,0,0,1,4,0V325.5A2,2,0,0,1,742,327.5Zm-10,0a2,2,0,0,1-2-2V35a2,2,0,0,1,4,0V325.5A2,2,0,0,1,732,327.5Zm-10,0a2,2,0,0,1-2-2V45a2,2,0,0,1,4,0V325.5A2,2,0,0,1,722,327.5Zm-10,0a2,2,0,0,1-2-2V56a2,2,0,0,1,4,0V325.5A2,2,0,0,1,712,327.5Zm-10,0a2,2,0,0,1-2-2V50a2,2,0,0,1,4,0V325.5A2,2,0,0,1,702,327.5Zm-10,0a2,2,0,0,1-2-2V49a2,2,0,0,1,4,0V325.5A2,2,0,0,1,692,327.5Zm-10,0a2,2,0,0,1-2-2V55a2,2,0,0,1,4,0V325.5A2,2,0,0,1,682,327.5Zm-10,0a2,2,0,0,1-2-2V42a2,2,0,0,1,4,0V325.5A2,2,0,0,1,672,327.5Zm-10,0a2,2,0,0,1-2-2V48a2,2,0,0,1,4,0V325.5A2,2,0,0,1,662,327.5Zm-10,0a2,2,0,0,1-2-2V57a2,2,0,0,1,4,0V325.5A2,2,0,0,1,652,327.5Zm-10,0a2,2,0,0,1-2-2V56a2,2,0,0,1,4,0V325.5A2,2,0,0,1,642,327.5Zm-10,0a2,2,0,0,1-2-2V54a2,2,0,0,1,4,0V325.5A2,2,0,0,1,632,327.5Zm-10,0a2,2,0,0,1-2-2V64a2,2,0,0,1,4,0V325.5A2,2,0,0,1,622,327.5Zm-10,0a2,2,0,0,1-2-2V76a2,2,0,0,1,4,0V325.5A2,2,0,0,1,612,327.5Zm-10,0a2,2,0,0,1-2-2V64a2,2,0,0,1,4,0V325.5A2,2,0,0,1,602,327.5Zm-10,0a2,2,0,0,1-2-2V60a2,2,0,0,1,4,0V325.5A2,2,0,0,1,592,327.5Zm-10,0a2,2,0,0,1-2-2V56a2,2,0,0,1,4,0V325.5A2,2,0,0,1,582,327.5Zm-10,0a2,2,0,0,1-2-2V56a2,2,0,0,1,4,0V325.5A2,2,0,0,1,572,327.5Zm-10,0a2,2,0,0,1-2-2V62a2,2,0,0,1,4,0V325.5A2,2,0,0,1,562,327.5Zm-10,0a2,2,0,0,1-2-2V68a2,2,0,0,1,4,0V325.5A2,2,0,0,1,552,327.5Zm-10,0a2,2,0,0,1-2-2V65a2,2,0,0,1,4,0V325.5A2,2,0,0,1,542,327.5Zm-10,0a2,2,0,0,1-2-2V67a2,2,0,0,1,4,0V325.5A2,2,0,0,1,532,327.5Zm-10,0a2,2,0,0,1-2-2V63a2,2,0,0,1,4,0V325.5A2,2,0,0,1,522,327.5Zm-10,0a2,2,0,0,1-2-2V66a2,2,0,0,1,4,0V325.5A2,2,0,0,1,512,327.5Zm-10,0a2,2,0,0,1-2-2V66a2,2,0,0,1,4,0V325.5A2,2,0,0,1,502,327.5Zm-10,0a2,2,0,0,1-2-2V74a2,2,0,0,1,4,0V325.5A2,2,0,0,1,492,327.5Zm-10,0a2,2,0,0,1-2-2V81a2,2,0,0,1,4,0V325.5A2,2,0,0,1,482,327.5Zm-10,0a2,2,0,0,1-2-2V89a2,2,0,0,1,4,0V325.5A2,2,0,0,1,472,327.5Zm-10,0a2,2,0,0,1-2-2V87a2,2,0,0,1,4,0V325.5A2,2,0,0,1,462,327.5Zm-10,0a2,2,0,0,1-2-2V93a2,2,0,0,1,4,0V325.5A2,2,0,0,1,452,327.5Zm-10,0a2,2,0,0,1-2-2V91a2,2,0,0,1,4,0V325.5A2,2,0,0,1,442,327.5Zm-10,0a2,2,0,0,1-2-2V92a2,2,0,0,1,4,0V325.5A2,2,0,0,1,432,327.5Zm-10,0a2,2,0,0,1-2-2V88a2,2,0,0,1,4,0V325.5A2,2,0,0,1,422,327.5Zm-10,0a2,2,0,0,1-2-2V83a2,2,0,0,1,4,0V325.5A2,2,0,0,1,412,327.5Zm-10,0a2,2,0,0,1-2-2V81a2,2,0,0,1,4,0V325.5A2,2,0,0,1,402,327.5Zm-10,0a2,2,0,0,1-2-2V89a2,2,0,0,1,4,0V325.5A2,2,0,0,1,392,327.5Zm-10,0a2,2,0,0,1-2-2V96a2,2,0,0,1,4,0V325.5A2,2,0,0,1,382,327.5Zm-10,0a2,2,0,0,1-2-2V98a2,2,0,0,1,4,0V325.5A2,2,0,0,1,372,327.5Zm-10,0a2,2,0,0,1-2-2V92a2,2,0,0,1,4,0V325.5A2,2,0,0,1,362,327.5Zm-10,0a2,2,0,0,1-2-2V95a2,2,0,0,1,4,0V325.5A2,2,0,0,1,352,327.5Zm-10,0a2,2,0,0,1-2-2V102a2,2,0,0,1,4,0V325.5A2,2,0,0,1,342,327.5Zm-10,0a2,2,0,0,1-2-2V106a2,2,0,0,1,4,0V325.5A2,2,0,0,1,332,327.5Zm-10,0a2,2,0,0,1-2-2V109a2,2,0,0,1,4,0V325.5A2,2,0,0,1,322,327.5Zm-10,0a2,2,0,0,1-2-2V109a2,2,0,0,1,4,0V325.5A2,2,0,0,1,312,327.5Zm-10,0a2,2,0,0,1-2-2V128a2,2,0,0,1,4,0V325.5A2,2,0,0,1,302,327.5Zm-10,0a2,2,0,0,1-2-2V123a2,2,0,0,1,4,0V325.5A2,2,0,0,1,292,327.5Zm-10,0a2,2,0,0,1-2-2V118a2,2,0,0,1,4,0V325.5A2,2,0,0,1,282,327.5Zm-10,0a2,2,0,0,1-2-2V121a2,2,0,0,1,4,0V325.5A2,2,0,0,1,272,327.5Zm-10,0a2,2,0,0,1-2-2V123a2,2,0,0,1,4,0V325.5A2,2,0,0,1,262,327.5Zm-10,0a2,2,0,0,1-2-2V127a2,2,0,0,1,4,0V325.5A2,2,0,0,1,252,327.5Zm-10,0a2,2,0,0,1-2-2V133a2,2,0,0,1,4,0V325.5A2,2,0,0,1,242,327.5Zm-10,0a2,2,0,0,1-2-2V137a2,2,0,0,1,4,0V325.5A2,2,0,0,1,232,327.5Zm-10,0a2,2,0,0,1-2-2V132a2,2,0,0,1,4,0V325.5A2,2,0,0,1,222,327.5Zm-10,0a2,2,0,0,1-2-2V135a2,2,0,0,1,4,0V325.5A2,2,0,0,1,212,327.5Zm-10,0a2,2,0,0,1-2-2V129a2,2,0,0,1,4,0V325.5A2,2,0,0,1,202,327.5Zm-10,0a2,2,0,0,1-2-2V135a2,2,0,0,1,4,0V325.5A2,2,0,0,1,192,327.5Zm-10,0a2,2,0,0,1-2-2V134a2,2,0,0,1,4,0V325.5A2,2,0,0,1,182,327.5Zm-10,0a2,2,0,0,1-2-2V139a2,2,0,0,1,4,0V325.5A2,2,0,0,1,172,327.5Zm-10,0a2,2,0,0,1-2-2V140a2,2,0,0,1,4,0V325.5A2,2,0,0,1,162,327.5Zm-10,0a2,2,0,0,1-2-2V138a2,2,0,0,1,4,0V325.5A2,2,0,0,1,152,327.5Zm-10,0a2,2,0,0,1-2-2V138a2,2,0,0,1,4,0V325.5A2,2,0,0,1,142,327.5Zm-10,0a2,2,0,0,1-2-2V137a2,2,0,0,1,4,0V325.5A2,2,0,0,1,132,327.5Zm-10,0a2,2,0,0,1-2-2V145a2,2,0,0,1,4,0V325.5A2,2,0,0,1,122,327.5Zm-10,0a2,2,0,0,1-2-2V156a2,2,0,0,1,4,0V325.5A2,2,0,0,1,112,327.5Zm-10,0a2,2,0,0,1-2-2V161a2,2,0,0,1,4,0V325.5A2,2,0,0,1,102,327.5Zm-10,0a2,2,0,0,1-2-2V159a2,2,0,0,1,4,0V325.5A2,2,0,0,1,92,327.5Zm-10,0a2,2,0,0,1-2-2V161a2,2,0,0,1,4,0V325.5A2,2,0,0,1,82,327.5Zm-10,0a2,2,0,0,1-2-2V157a2,2,0,0,1,4,0V325.5A2,2,0,0,1,72,327.5Zm-10,0a2,2,0,0,1-2-2V161a2,2,0,0,1,4,0V325.5A2,2,0,0,1,62,327.5Zm-10,0a2,2,0,0,1-2-2V177a2,2,0,0,1,4,0V325.5A2,2,0,0,1,52,327.5Zm-10,0a2,2,0,0,1-2-2V163a2,2,0,0,1,4,0V325.5A2,2,0,0,1,42,327.5Zm-10,0a2,2,0,0,1-2-2V167a2,2,0,0,1,4,0V325.5A2,2,0,0,1,32,327.5Zm-10,0a2,2,0,0,1-2-2V175a2,2,0,0,1,4,0V325.5A2,2,0,0,1,22,327.5Zm-10,0a2,2,0,0,1-2-2V175a2,2,0,0,1,4,0V325.5A2,2,0,0,1,12,327.5Zm-10,0a2,2,0,0,1-2-2V175a2,2,0,0,1,4,0V325.5A2,2,0,0,1,2,327.5Z"/></g></g></svg>