<svg xmlns="http://www.w3.org/2000/svg" xmlns:xlink="http://www.w3.org/1999/xlink" viewBox="0 0 878.82 261.44"><defs><style>.cls-1{fill:url(#linear-gradient);}.cls-2{fill:none;stroke:#f2c30c;stroke-linecap:round;stroke-linejoin:round;}</style><linearGradient id="linear-gradient" x1="439.41" y1="261.44" x2="439.41" y2="0.5" gradientUnits="userSpaceOnUse"><stop offset="0" stop-color="#fc3" stop-opacity="0"/><stop offset="0.71" stop-color="#fc3" stop-opacity="0.25"/><stop offset="0.88" stop-color="#fc3" stop-opacity="0.44"/><stop offset="1" stop-color="#fc3" stop-opacity="0.5"/></linearGradient></defs><title>chartline</title><g id="Layer_2" data-name="Layer 2"><g id="Layer_1-2" data-name="Layer 1"><polygon class="cls-1" points="0.08 174.31 1.46 171.64 2.77 171.31 4.15 169.97 5.53 169.37 6.84 170.37 8.22 169.9 9.54 169.5 10.92 169.5 12.11 169.5 13.43 170.97 14.81 169.6 16.13 169.95 17.5 170.5 18.82 170.5 20.2 169.5 21.57 169.5 22.89 170.4 24.27 170.32 25.59 169.5 26.96 169.5 28.34 170 29.66 169.35 31.03 166.09 32.35 167 33.55 164.51 34.93 164.5 36.24 164.5 37.62 162.1 38.94 161.5 40.31 161.5 41.63 159.87 43.01 158.5 44.39 158.5 45.7 158.19 47.08 158.34 48.4 161.72 49.77 162.44 51.15 160.56 52.47 161.5 53.85 161.09 54.98 160.16 56.36 158.69 57.74 159.76 59.06 159.83 60.43 158.5 61.75 158.5 63.13 156.02 64.44 155.72 65.82 154 67.2 155.11 68.52 155.5 69.89 154.35 71.21 154.89 72.59 154.68 73.97 156.42 75.28 154.56 76.66 155.5 77.8 155.5 79.17 155.49 80.55 154.79 81.87 155.04 83.25 154.5 84.56 154.5 85.94 155.93 87.26 155.57 88.64 157.97 90.01 157.5 91.33 157.5 92.71 155.19 94.02 153.7 95.4 150.32 96.78 150.53 98.09 150.74 99.29 155.61 100.61 153.55 101.99 157.15 103.36 157.55 104.68 155.62 106.06 153.55 107.38 151.28 108.75 150.74 110.07 149.79 111.45 150.5 112.82 150.5 114.14 149.99 115.52 151.03 116.84 149.15 118.21 147.11 119.59 145.65 120.91 143.19 122.11 141.12 123.42 140.68 124.8 139.5 126.18 139.5 127.49 136.94 128.87 134.16 130.19 133.04 131.57 129.84 132.88 130.57 134.26 131.51 135.64 134.31 136.95 133.5 138.33 133.5 139.65 133.5 141.03 131.64 142.4 131.78 143.54 130.21 144.92 133.06 146.24 131.52 147.61 132.12 148.99 133.38 150.31 131.91 151.68 130.18 153 129.44 154.38 131.11 155.7 133.98 157.07 132.65 158.45 133.25 159.77 132.45 161.14 131.51 162.46 132.85 163.84 136.05 165.04 137.39 166.35 139.79 167.73 137.72 169.05 137.52 170.43 135.32 171.8 135.12 173.12 132.25 174.5 133.58 175.81 134.18 177.19 133.78 178.51 133.25 179.89 133.05 181.26 132.25 182.58 132.11 183.96 128.5 185.27 128.5 186.65 127.5 187.85 127.5 189.17 127.64 190.54 127.4 191.86 129.46 193.24 128.51 194.62 129.65 195.93 129.84 197.31 128.71 198.63 129.44 200 128.11 201.32 128.31 202.7 129.04 204.07 126.04 205.39 124.77 206.77 124.37 208.09 126.64 209.28 127.97 210.66 129.04 211.98 129.5 213.36 129.5 214.67 127.1 216.05 124.83 217.43 128.74 218.75 128.12 220.12 130.38 221.44 128.51 222.82 129.04 224.13 127.57 225.51 127.37 226.89 127.97 228.21 133.05 229.58 132.85 230.78 130.78 232.1 133.58 233.47 133.38 234.79 131.91 236.17 129.64 237.49 128.71 238.86 129.04 240.24 126.44 241.56 126.64 242.94 126.97 244.25 128.51 245.63 128.31 246.95 127.97 248.32 124.7 249.7 121.5 251.02 121.5 252.4 121.5 253.59 122.1 254.91 121.6 256.29 120.51 257.6 119.47 258.98 118.88 260.3 120.22 261.68 116.42 263.05 116.62 264.37 117.76 265.75 115.49 267.06 116.29 268.44 123.23 269.76 124.17 271.14 120.56 272.51 118.89 273.83 117.36 275.03 116.09 276.41 116.42 277.72 114.75 279.1 113.08 280.42 111.95 281.79 111.35 283.11 113.42 284.49 110.41 285.87 110.81 287.18 112.28 288.56 111.75 289.88 113.42 291.25 114.95 292.57 115.89 293.95 113.42 295.33 115.69 296.64 116.09 297.84 118.16 299.22 117.02 300.54 116.29 301.91 117.02 303.23 113.82 304.61 113.08 305.92 111.35 307.3 111.15 308.68 112.68 310 112.48 311.37 108.74 312.69 104.2 314.07 104.4 315.38 103.47 316.76 101.4 318.14 101.2 319.28 98.73 320.65 99.66 322.03 101.2 323.35 100.6 324.73 102.33 326.04 101.4 327.42 101.93 328.74 101.53 330.11 103.47 331.49 103.8 332.81 102.87 334.19 101.2 335.5 101.73 336.88 102.13 338.2 103.8 339.57 101.2 340.77 100.48 342.09 99.5 343.47 99.5 344.84 99.75 346.16 98.77 347.54 97.81 348.86 97.2 350.23 95.93 351.55 95.12 352.93 94.39 354.3 93.25 355.62 89.51 357 90.65 358.32 88.91 359.69 91.78 361.01 88.38 362.39 87.64 363.58 86.64 364.9 87.04 366.28 86.64 367.66 85.17 368.97 81.23 370.35 82.7 371.67 87.24 373.05 88.71 374.36 87.44 375.74 90.45 377.12 87.64 378.43 90.25 379.81 95.72 381.13 93.05 382.51 93.45 383.82 91.18 385.02 90.85 386.4 90.05 387.71 87.78 389.09 88.38 390.47 85.71 391.79 86.31 393.16 86.11 394.48 83.84 395.86 84.44 397.18 84.04 398.55 82.5 399.93 81.03 401.25 81.77 402.62 81.97 403.94 81.03 405.32 79.7 406.52 80.43 407.83 75.76 409.21 74.42 410.53 73.09 411.9 74.62 413.28 74.95 414.6 78.03 415.98 81.57 417.29 85.17 418.67 84.57 419.99 82.5 421.37 80.1 422.74 81.57 424.06 82.37 425.44 82.5 426.75 83.1 428.13 81.97 429.33 84.77 430.65 85.91 432.02 85.71 433.34 83.64 434.72 80.43 436.1 79.7 437.41 81.37 438.79 83.64 440.11 87.04 441.48 87.24 442.8 83.44 444.18 85.91 445.56 87.64 446.87 88.71 448.25 91.78 449.57 88.74 450.76 86.5 452.14 86.5 453.46 86.34 454.84 83.95 456.15 85.86 457.53 85.55 458.91 87.77 460.23 88.17 461.6 85.37 462.92 82.9 464.3 82.5 465.61 81.77 466.99 81.03 468.37 83.17 469.69 84.5 471.06 84.5 472.38 85.44 473.58 82.3 474.95 81.73 476.27 80.61 477.65 84.03 478.97 83.83 480.34 80.83 481.72 81.97 483.04 80.63 484.42 78.36 485.73 75.56 487.11 74.95 488.43 71.02 489.8 69.68 491.18 69.12 492.5 69.5 493.88 69.5 495.07 68.79 496.39 67.7 497.77 65.78 499.08 62.22 500.46 60.48 501.78 59.34 503.16 59.93 504.53 60.47 505.85 61.2 507.23 60.27 508.55 59.13 509.92 58.6 511.24 57.99 512.62 59.91 513.99 60.5 515.31 60.5 516.51 61.05 517.88 57.35 519.2 57.71 520.58 58.02 521.9 57.67 523.27 56.98 524.59 57.5 525.97 57.5 527.35 59.25 528.66 61.96 530.04 61.7 531.36 64.5 532.74 64.5 534.05 60.58 535.43 62.39 536.81 61.83 538.12 64.29 539.32 60.14 540.7 62.94 542.01 63.87 543.39 60.87 544.71 59.93 546.09 61.18 547.4 62.5 548.78 62.5 550.16 62.12 551.48 65.3 552.85 67.02 554.17 66.65 555.55 63.26 556.87 61.99 558.24 62.33 559.62 65.41 560.76 59.33 562.13 61.2 563.51 59.13 564.83 56.93 566.21 57.52 567.52 55.5 568.9 55.5 570.22 56.58 571.59 54.08 572.97 53.53 574.29 53.13 575.67 51.05 576.98 50.32 578.36 51.05 579.68 49.52 581.05 50.12 582.25 51.45 583.57 50.85 584.95 51.18 586.32 50.5 587.64 50.5 589.02 52.51 590.34 51.41 591.71 50.63 593.03 52.38 594.41 55.31 595.78 54.5 597.1 54.5 598.48 54.5 599.8 56.25 601.17 59.09 602.49 59.91 603.87 58.19 605.07 59.13 606.38 54.45 607.76 52.92 609.14 53.32 610.45 57.26 611.83 57.46 613.15 54.99 614.52 59.13 615.84 62 617.22 63.14 618.6 66.47 619.91 71.22 621.29 73.29 622.61 72.75 623.99 71.22 625.3 65.74 626.5 61.2 627.88 58.6 629.2 52.92 630.57 54.66 631.95 54.46 633.27 52.39 634.64 55.39 635.96 51.78 637.34 48.78 638.65 47.45 640.03 45.77 641.41 47.65 642.73 52.72 644.1 52.92 645.42 51.21 646.8 52.5 648.12 52.5 649.31 51.41 650.69 53.4 652.01 52.96 653.38 51.27 654.76 52.4 656.08 49.92 657.46 51.58 658.77 49.5 660.15 49.5 661.47 44.63 662.85 44.94 664.22 43.12 665.54 43.28 666.92 44.09 668.23 45.97 669.61 44.64 670.81 42.03 672.13 41.43 673.5 37.09 674.82 39.56 676.2 40.9 677.57 43.3 678.89 46.31 680.27 49.38 681.59 51.98 682.96 52.39 684.28 49.52 685.66 45.58 687.03 45.38 688.35 46.31 689.73 44.84 691.05 43.5 692.24 43.5 693.62 42.57 694.94 44.3 696.32 45.5 697.63 45.5 699.01 43.67 700.39 48.42 701.7 50.5 703.08 50.5 704.4 44.33 705.78 45.29 707.09 47.33 708.47 48.26 709.85 49.72 711.16 52.72 712.54 51.65 713.86 51.45 715.06 50.52 716.43 52.19 717.75 49.91 719.13 48.25 720.45 45.04 721.82 46.31 723.2 47.31 724.52 44.24 725.89 46.18 727.21 44.11 728.59 39.77 729.91 39.57 731.28 37.83 732.66 39.57 733.98 40.07 735.36 39.5 736.49 39.5 737.87 35.39 739.25 30.11 740.56 29.5 741.94 29.5 743.26 27.86 744.64 25.4 746.01 25.8 747.33 25.21 748.71 24.27 750.02 26.21 751.4 22.61 752.72 24.07 754.1 23.74 755.47 23.01 756.79 23.34 757.99 22.2 759.3 24.88 760.68 26.01 762.06 30.35 763.38 29.55 764.75 25.81 766.07 24.68 767.45 24.27 768.83 26.95 770.14 27.15 771.52 28.08 772.84 26.01 774.21 24.48 775.53 23.14 776.91 26.01 778.29 26.75 779.6 26.95 780.8 24.07 782.12 21.87 783.5 20.54 784.87 19.93 786.19 19.6 787.57 18.46 788.88 18.8 790.26 16.6 791.64 15.99 792.96 17.13 794.33 18.67 795.65 19.4 797.03 17.13 798.34 19.4 799.72 20.87 801.1 19.4 802.24 18.07 803.61 17.33 804.93 16.93 806.31 16.39 807.68 15.06 809 17.33 810.38 19.8 811.7 23.94 813.07 21.27 814.45 20.74 815.77 23.74 817.14 25.81 818.46 24.07 819.84 20.87 821.16 20.74 822.53 21.67 823.91 21.27 825.05 16.6 826.43 17.28 827.74 15.5 829.12 15.5 830.5 15.01 831.82 14.54 833.19 13.66 834.51 13.36 835.89 14.51 837.26 11.11 838.58 3.37 839.96 4.31 841.27 4.71 842.65 5.24 843.97 2.64 845.35 3.17 846.54 5.44 847.86 7.92 849.24 9.58 850.56 6.38 851.93 5.84 853.31 5.45 854.63 6.78 856 5.24 857.32 6.04 858.7 4.91 860.08 6.18 861.39 0.94 862.77 0.5 864.09 0.5 865.47 2.81 866.78 1.79 867.98 8.49 869.36 6.2 870.67 5.46 872.05 4.71 873.37 5.05 874.75 7.32 876.12 8.12 877.44 11.86 878.82 10.32 878.82 261.44 0 261.44 0.08 174.31"/><polyline class="cls-2" points="1.46 171.64 2.77 171.31 4.15 169.97 5.53 169.37 6.84 170.37 8.22 169.9 9.54 169.5 10.92 169.5 12.11 169.5 13.43 170.97 14.81 169.6 16.13 169.95 17.5 170.5 18.82 170.5 20.2 169.5 21.57 169.5 22.89 170.4 24.27 170.32 25.59 169.5 26.96 169.5 28.34 170 29.66 169.35 31.03 166.09 32.35 167 33.55 164.51 34.93 164.5 36.24 164.5 37.62 162.1 38.94 161.5 40.31 161.5 41.63 159.87 43.01 158.5 44.39 158.5 45.7 158.19 47.08 158.34 48.4 161.72 49.77 162.44 51.15 160.56 52.47 161.5 53.85 161.09 54.98 160.16 56.36 158.69 57.74 159.76 59.06 159.83 60.43 158.5 61.75 158.5 63.13 156.02 64.44 155.72 65.82 154 67.2 155.11 68.52 155.5 69.89 154.35 71.21 154.89 72.59 154.68 73.97 156.42 75.28 154.56 76.66 155.5 77.8 155.5 79.17 155.49 80.55 154.79 81.87 155.04 83.25 154.5 84.56 154.5 85.94 155.93 87.26 155.57 88.64 157.97 90.01 157.5 91.33 157.5 92.71 155.19 94.02 153.7 95.4 150.32 96.78 150.53 98.09 150.74 99.29 155.61 100.61 153.55 101.99 157.15 103.36 157.55 104.68 155.62 106.06 153.55 107.38 151.28 108.75 150.74 110.07 149.79 111.45 150.5 112.82 150.5 114.14 149.99 115.52 151.03 116.84 149.15 118.21 147.11 119.59 145.65 120.91 143.19 122.11 141.12 123.42 140.68 124.8 139.5 126.18 139.5 127.49 136.94 128.87 134.16 130.19 133.04 131.57 129.84 132.88 130.57 134.26 131.51 135.64 134.31 136.95 133.5 138.33 133.5 139.65 133.5 141.03 131.64 142.4 131.78 143.54 130.21 144.92 133.06 146.24 131.52 147.61 132.12 148.99 133.38 150.31 131.91 151.68 130.18 153 129.44 154.38 131.11 155.7 133.98 157.07 132.65 158.45 133.25 159.77 132.45 161.14 131.51 162.46 132.85 163.84 136.05 165.04 137.39 166.35 139.79 167.73 137.72 169.05 137.52 170.43 135.32 171.8 135.12 173.12 132.25 174.5 133.58 175.81 134.18 177.19 133.78 178.51 133.25 179.89 133.05 181.26 132.25 182.58 132.11 183.96 128.5 185.27 128.5 186.65 127.5 187.85 127.5 189.17 127.64 190.54 127.4 191.86 129.46 193.24 128.51 194.62 129.65 195.93 129.84 197.31 128.71 198.63 129.44 200 128.11 201.32 128.31 202.7 129.04 204.07 126.04 205.39 124.77 206.77 124.37 208.09 126.64 209.28 127.97 210.66 129.04 211.98 129.5 213.36 129.5 214.67 127.1 216.05 124.83 217.43 128.74 218.75 128.12 220.12 130.38 221.44 128.51 222.82 129.04 224.13 127.57 225.51 127.37 226.89 127.97 228.21 133.05 229.58 132.85 230.78 130.78 232.1 133.58 233.47 133.38 234.79 131.91 236.17 129.64 237.49 128.71 238.86 129.04 240.24 126.44 241.56 126.64 242.94 126.97 244.25 128.51 245.63 128.31 246.95 127.97 248.32 124.7 249.7 121.5 251.02 121.5 252.4 121.5 253.59 122.1 254.91 121.6 256.29 120.51 257.6 119.47 258.98 118.88 260.3 120.22 261.68 116.42 263.05 116.62 264.37 117.76 265.75 115.49 267.06 116.29 268.44 123.23 269.76 124.17 271.14 120.56 272.51 118.89 273.83 117.36 275.03 116.09 276.41 116.42 277.72 114.75 279.1 113.08 280.42 111.95 281.79 111.35 283.11 113.42 284.49 110.41 285.87 110.81 287.18 112.28 288.56 111.75 289.88 113.42 291.25 114.95 292.57 115.89 293.95 113.42 295.33 115.69 296.64 116.09 297.84 118.16 299.22 117.02 300.54 116.29 301.91 117.02 303.23 113.82 304.61 113.08 305.92 111.35 307.3 111.15 308.68 112.68 310 112.48 311.37 108.74 312.69 104.2 314.07 104.4 315.38 103.47 316.76 101.4 318.14 101.2 319.28 98.73 320.65 99.66 322.03 101.2 323.35 100.6 324.73 102.33 326.04 101.4 327.42 101.93 328.74 101.53 330.11 103.47 331.49 103.8 332.81 102.87 334.19 101.2 335.5 101.73 336.88 102.13 338.2 103.8 339.57 101.2 340.77 100.48 342.09 99.5 343.47 99.5 344.84 99.75 346.16 98.77 347.54 97.81 348.86 97.2 350.23 95.93 351.55 95.12 352.93 94.39 354.3 93.25 355.62 89.51 357 90.65 358.32 88.91 359.69 91.78 361.01 88.38 362.39 87.64 363.58 86.64 364.9 87.04 366.28 86.64 367.66 85.17 368.97 81.23 370.35 82.7 371.67 87.24 373.05 88.71 374.36 87.44 375.74 90.45 377.12 87.64 378.43 90.25 379.81 95.72 381.13 93.05 382.51 93.45 383.82 91.18 385.02 90.85 386.4 90.05 387.71 87.78 389.09 88.38 390.47 85.71 391.79 86.31 393.16 86.11 394.48 83.84 395.86 84.44 397.18 84.04 398.55 82.5 399.93 81.03 401.25 81.77 402.62 81.97 403.94 81.03 405.32 79.7 406.52 80.43 407.83 75.76 409.21 74.42 410.53 73.09 411.9 74.62 413.28 74.95 414.6 78.03 415.98 81.57 417.29 85.17 418.67 84.57 419.99 82.5 421.37 80.1 422.74 81.57 424.06 82.37 425.44 82.5 426.75 83.1 428.13 81.97 429.33 84.77 430.65 85.91 432.02 85.71 433.34 83.64 434.72 80.43 436.1 79.7 437.41 81.37 438.79 83.64 440.11 87.04 441.48 87.24 442.8 83.44 444.18 85.91 445.56 87.64 446.87 88.71 448.25 91.78 449.57 88.74 450.76 86.5 452.14 86.5 453.46 86.34 454.84 83.95 456.15 85.86 457.53 85.55 458.91 87.77 460.23 88.17 461.6 85.37 462.92 82.9 464.3 82.5 465.61 81.77 466.99 81.03 468.37 83.17 469.69 84.5 471.06 84.5 472.38 85.44 473.58 82.3 474.95 81.73 476.27 80.61 477.65 84.03 478.97 83.83 480.34 80.83 481.72 81.97 483.04 80.63 484.42 78.36 485.73 75.56 487.11 74.95 488.43 71.02 489.8 69.68 491.18 69.12 492.5 69.5 493.88 69.5 495.07 68.79 496.39 67.7 497.77 65.78 499.08 62.22 500.46 60.48 501.78 59.34 503.16 59.93 504.53 60.47 505.85 61.2 507.23 60.27 508.55 59.13 509.92 58.6 511.24 57.99 512.62 59.91 513.99 60.5 515.31 60.5 516.51 61.05 517.88 57.35 519.2 57.71 520.58 58.02 521.9 57.67 523.27 56.98 524.59 57.5 525.97 57.5 527.35 59.25 528.66 61.96 530.04 61.7 531.36 64.5 532.74 64.5 534.05 60.58 535.43 62.39 536.81 61.83 538.12 64.29 539.32 60.14 540.7 62.94 542.01 63.87 543.39 60.87 544.71 59.93 546.09 61.18 547.4 62.5 548.78 62.5 550.16 62.12 551.48 65.3 552.85 67.02 554.17 66.65 555.55 63.26 556.87 61.99 558.24 62.33 559.62 65.41 560.76 59.33 562.13 61.2 563.51 59.13 564.83 56.93 566.21 57.52 567.52 55.5 568.9 55.5 570.22 56.58 571.59 54.08 572.97 53.53 574.29 53.13 575.67 51.05 576.98 50.32 578.36 51.05 579.68 49.52 581.05 50.12 582.25 51.45 583.57 50.85 584.95 51.18 586.32 50.5 587.64 50.5 589.02 52.51 590.34 51.41 591.71 50.63 593.03 52.38 594.41 55.31 595.78 54.5 597.1 54.5 598.48 54.5 599.8 56.25 601.17 59.09 602.49 59.91 603.87 58.19 605.07 59.13 606.38 54.45 607.76 52.92 609.14 53.32 610.45 57.26 611.83 57.46 613.15 54.99 614.52 59.13 615.84 62 617.22 63.14 618.6 66.47 619.91 71.22 621.29 73.29 622.61 72.75 623.99 71.22 625.3 65.74 626.5 61.2 627.88 58.6 629.2 52.92 630.57 54.66 631.95 54.46 633.27 52.39 634.64 55.39 635.96 51.78 637.34 48.78 638.65 47.45 640.03 45.77 641.41 47.65 642.73 52.72 644.1 52.92 645.42 51.21 646.8 52.5 648.12 52.5 649.31 51.41 650.69 53.4 652.01 52.96 653.38 51.27 654.76 52.4 656.08 49.92 657.46 51.58 658.77 49.5 660.15 49.5 661.47 44.63 662.85 44.94 664.22 43.12 665.54 43.28 666.92 44.09 668.23 45.97 669.61 44.64 670.81 42.03 672.13 41.43 673.5 37.09 674.82 39.56 676.2 40.9 677.57 43.3 678.89 46.31 680.27 49.38 681.59 51.98 682.96 52.39 684.28 49.52 685.66 45.58 687.03 45.38 688.35 46.31 689.73 44.84 691.05 43.5 692.24 43.5 693.62 42.57 694.94 44.3 696.32 45.5 697.63 45.5 699.01 43.67 700.39 48.42 701.7 50.5 703.08 50.5 704.4 44.33 705.78 45.29 707.09 47.33 708.47 48.26 709.85 49.72 711.16 52.72 712.54 51.65 713.86 51.45 715.06 50.52 716.43 52.19 717.75 49.91 719.13 48.25 720.45 45.04 721.82 46.31 723.2 47.31 724.52 44.24 725.89 46.18 727.21 44.11 728.59 39.77 729.91 39.57 731.28 37.83 732.66 39.57 733.98 40.07 735.36 39.5 736.49 39.5 737.87 35.39 739.25 30.11 740.56 29.5 741.94 29.5 743.26 27.86 744.64 25.4 746.01 25.8 747.33 25.21 748.71 24.27 750.02 26.21 751.4 22.61 752.72 24.07 754.1 23.74 755.47 23.01 756.79 23.34 757.99 22.2 759.3 24.88 760.68 26.01 762.06 30.35 763.38 29.55 764.75 25.81 766.07 24.68 767.45 24.27 768.83 26.95 770.14 27.15 771.52 28.08 772.84 26.01 774.21 24.48 775.53 23.14 776.91 26.01 778.29 26.75 779.6 26.95 780.8 24.07 782.12 21.87 783.5 20.54 784.87 19.93 786.19 19.6 787.57 18.46 788.88 18.8 790.26 16.6 791.64 15.99 792.96 17.13 794.33 18.67 795.65 19.4 797.03 17.13 798.34 19.4 799.72 20.87 801.1 19.4 802.24 18.07 803.61 17.33 804.93 16.93 806.31 16.39 807.68 15.06 809 17.33 810.38 19.8 811.7 23.94 813.07 21.27 814.45 20.74 815.77 23.74 817.14 25.81 818.46 24.07 819.84 20.87 821.16 20.74 822.53 21.67 823.91 21.27 825.05 16.6 826.43 17.28 827.74 15.5 829.12 15.5 830.5 15.01 831.82 14.54 833.19 13.66 834.51 13.36 835.89 14.51 837.26 11.11 838.58 3.37 839.96 4.31 841.27 4.71 842.65 5.24 843.97 2.64 845.35 3.17 846.54 5.44 847.86 7.92 849.24 9.58 850.56 6.38 851.93 5.84 853.31 5.45 854.63 6.78 856 5.24 857.32 6.04 858.7 4.91 860.08 6.18 861.39 0.94 862.77 0.5 864.09 0.5 865.47 2.81 866.78 1.79 867.98 8.49 869.36 6.2 870.67 5.46 872.05 4.71 873.37 5.05 874.75 7.32 876.12 8.12 877.44 11.86"/></g></g></svg>