<svg viewBox="0 0 878.82 261.44" xmlns="http://www.w3.org/2000/svg" xmlns:xlink="http://www.w3.org/1999/xlink"><linearGradient id="a" gradientUnits="userSpaceOnUse" x1="439.41" x2="439.41" y1="261.44" y2=".5"><stop offset="0" stop-color="#fc3" stop-opacity="0"/><stop offset=".71" stop-color="#fc3" stop-opacity=".25"/><stop offset=".88" stop-color="#fc3" stop-opacity=".44"/><stop offset="1" stop-color="#fc3" stop-opacity=".5"/></linearGradient><path d="m.08 174.31 1.38-2.67 1.31-.33 1.38-1.34 1.38-.6 1.31 1 1.38-.47 1.32-.4h1.38 1.19l1.32 1.47 1.38-1.37 1.32.35 1.37.55h1.32l1.38-1h1.37l1.32.9 1.38-.08 1.32-.82h1.37l1.38.5 1.32-.65 1.37-3.26 1.32.91 1.2-2.49 1.38-.01h1.31l1.38-2.4 1.32-.6h1.37l1.32-1.63 1.38-1.37h1.38l1.31-.31 1.38.15 1.32 3.38 1.37.72 1.38-1.88 1.32.94 1.38-.41 1.13-.93 1.38-1.47 1.38 1.07 1.32.07 1.37-1.33h1.32l1.38-2.48 1.31-.3 1.38-1.72 1.38 1.11 1.32.39 1.37-1.15 1.32.54 1.38-.21 1.38 1.74 1.31-1.86 1.38.94h1.14l1.37-.01 1.38-.7 1.32.25 1.38-.54h1.31l1.38 1.43 1.32-.36 1.38 2.4 1.37-.47h1.32l1.38-2.31 1.31-1.49 1.38-3.38 1.38.21 1.31.21 1.2 4.87 1.32-2.06 1.38 3.6 1.37.4 1.32-1.93 1.38-2.07 1.32-2.27 1.37-.54 1.32-.95 1.38.71h1.37l1.32-.51 1.38 1.04 1.32-1.88 1.37-2.04 1.38-1.46 1.32-2.46 1.2-2.07 1.31-.44 1.38-1.18h1.38l1.31-2.56 1.38-2.78 1.32-1.12 1.38-3.2 1.31.73 1.38.94 1.38 2.8 1.31-.81h1.38 1.32l1.38-1.86 1.37.14 1.14-1.57 1.38 2.85 1.32-1.54 1.37.6 1.38 1.26 1.32-1.47 1.37-1.73 1.32-.74 1.38 1.67 1.32 2.87 1.37-1.33 1.38.6 1.32-.8 1.37-.94 1.32 1.34 1.38 3.2 1.2 1.34 1.31 2.4 1.38-2.07 1.32-.2 1.38-2.2 1.37-.2 1.32-2.87 1.38 1.33 1.31.6 1.38-.4 1.32-.53 1.38-.2 1.37-.8 1.32-.14 1.38-3.61h1.31l1.38-1h1.2l1.32.14 1.37-.24 1.32 2.06 1.38-.95 1.38 1.14 1.31.19 1.38-1.13 1.32.73 1.37-1.33 1.32.2 1.38.73 1.37-3 1.32-1.27 1.38-.4 1.32 2.27 1.19 1.33 1.38 1.07 1.32.46h1.38l1.31-2.4 1.38-2.27 1.38 3.91 1.32-.62 1.37 2.26 1.32-1.87 1.38.53 1.31-1.47 1.38-.2 1.38.6 1.32 5.08 1.37-.2 1.2-2.07 1.32 2.8 1.37-.2 1.32-1.47 1.38-2.27 1.32-.93 1.37.33 1.38-2.6 1.32.2 1.38.33 1.31 1.54 1.38-.2 1.32-.34 1.37-3.27 1.38-3.2h1.32 1.38l1.19.6 1.32-.5 1.38-1.09 1.31-1.04 1.38-.59 1.32 1.34 1.38-3.8 1.37.2 1.32 1.14 1.38-2.27 1.31.8 1.38 6.94 1.32.94 1.38-3.61 1.37-1.67 1.32-1.53 1.2-1.27 1.38.33 1.31-1.67 1.38-1.67 1.32-1.13 1.37-.6 1.32 2.07 1.38-3.01 1.38.4 1.31 1.47 1.38-.53 1.32 1.67 1.37 1.53 1.32.94 1.38-2.47 1.38 2.27 1.31.4 1.2 2.07 1.38-1.14 1.32-.73 1.37.73 1.32-3.2 1.38-.74 1.31-1.73 1.38-.2 1.38 1.53 1.32-.2 1.37-3.74 1.32-4.54 1.38.2 1.31-.93 1.38-2.07 1.38-.2 1.14-2.47 1.37.93 1.38 1.54 1.32-.6 1.38 1.73 1.31-.93 1.38.53 1.32-.4 1.37 1.94 1.38.33 1.32-.93 1.38-1.67 1.31.53 1.38.4 1.32 1.67 1.37-2.6 1.2-.72 1.32-.98h1.38l1.37.25 1.32-.98 1.38-.96 1.32-.61 1.37-1.27 1.32-.81 1.38-.73 1.37-1.14 1.32-3.74 1.38 1.14 1.32-1.74 1.37 2.87 1.32-3.4 1.38-.74 1.19-1 1.32.4 1.38-.4 1.38-1.47 1.31-3.94 1.38 1.47 1.32 4.54 1.38 1.47 1.31-1.27 1.38 3.01 1.38-2.81 1.31 2.61 1.38 5.47 1.32-2.67 1.38.4 1.31-2.27 1.2-.33 1.38-.8 1.31-2.27 1.38.6 1.38-2.67 1.32.6 1.37-.2 1.32-2.27 1.38.6 1.32-.4 1.37-1.54 1.38-1.47 1.32.74 1.37.2 1.32-.94 1.38-1.33 1.2.73 1.31-4.67 1.38-1.34 1.32-1.33 1.37 1.53 1.38.33 1.32 3.08 1.38 3.54 1.31 3.6 1.38-.6 1.32-2.07 1.38-2.4 1.37 1.47 1.32.8 1.38.13 1.31.6 1.38-1.13 1.2 2.8 1.32 1.14 1.37-.2 1.32-2.07 1.38-3.21 1.38-.73 1.31 1.67 1.38 2.27 1.32 3.4 1.37.2 1.32-3.8 1.38 2.47 1.38 1.73 1.31 1.07 1.38 3.07 1.32-3.04 1.19-2.24h1.38l1.32-.16 1.38-2.39 1.31 1.91 1.38-.31 1.38 2.22 1.32.4 1.37-2.8 1.32-2.47 1.38-.4 1.31-.73 1.38-.74 1.38 2.14 1.32 1.33h1.37l1.32.94 1.2-3.14 1.37-.57 1.32-1.12 1.38 3.42 1.32-.2 1.37-3 1.38 1.14 1.32-1.34 1.38-2.27 1.31-2.8 1.38-.61 1.32-3.93 1.37-1.34 1.38-.56 1.32.38h1.38l1.19-.71 1.32-1.09 1.38-1.92 1.31-3.56 1.38-1.74 1.32-1.14 1.38.59 1.37.54 1.32.73 1.38-.93 1.32-1.14 1.37-.53 1.32-.61 1.38 1.92 1.37.59h1.32l1.2.55 1.37-3.7 1.32.36 1.38.31 1.32-.35 1.37-.69 1.32.52h1.38l1.38 1.75 1.31 2.71 1.38-.26 1.32 2.8h1.38l1.31-3.92 1.38 1.81 1.38-.56 1.31 2.46 1.2-4.15 1.38 2.8 1.31.93 1.38-3 1.32-.94 1.38 1.25 1.31 1.32h1.38l1.38-.38 1.32 3.18 1.37 1.72 1.32-.37 1.38-3.39 1.32-1.27 1.37.34 1.38 3.08 1.14-6.08 1.37 1.87 1.38-2.07 1.32-2.2 1.38.59 1.31-2.02h1.38l1.32 1.08 1.37-2.5 1.38-.55 1.32-.4 1.38-2.08 1.31-.73 1.38.73 1.32-1.53 1.37.6 1.2 1.33 1.32-.6 1.38.33 1.37-.68h1.32l1.38 2.01 1.32-1.1 1.37-.78 1.32 1.75 1.38 2.93 1.37-.81h1.32 1.38l1.32 1.75 1.37 2.84 1.32.82 1.38-1.72 1.2.94 1.31-4.68 1.38-1.53 1.38.4 1.31 3.94 1.38.2 1.32-2.47 1.37 4.14 1.32 2.87 1.38 1.14 1.38 3.33 1.31 4.75 1.38 2.07 1.32-.54 1.38-1.53 1.31-5.48 1.2-4.54 1.38-2.6 1.32-5.68 1.37 1.74 1.38-.2 1.32-2.07 1.37 3 1.32-3.61 1.38-3 1.31-1.33 1.38-1.68 1.38 1.88 1.32 5.07 1.37.2 1.32-1.71 1.38 1.29h1.32l1.19-1.09 1.38 1.99 1.32-.44 1.37-1.69 1.38 1.13 1.32-2.48 1.38 1.66 1.31-2.08h1.38l1.32-4.87 1.38.31 1.37-1.82 1.32.16 1.38.81 1.31 1.88 1.38-1.33 1.2-2.61 1.32-.6 1.37-4.34 1.32 2.47 1.38 1.34 1.37 2.4 1.32 3.01 1.38 3.07 1.32 2.6 1.37.41 1.32-2.87 1.38-3.94 1.37-.2 1.32.93 1.38-1.47 1.32-1.34h1.19l1.38-.93 1.32 1.73 1.38 1.2h1.31l1.38-1.83 1.38 4.75 1.31 2.08h1.38l1.32-6.17 1.38.96 1.31 2.04 1.38.93 1.38 1.46 1.31 3 1.38-1.07 1.32-.2 1.2-.93 1.37 1.67 1.32-2.28 1.38-1.66 1.32-3.21 1.37 1.27 1.38 1 1.32-3.07 1.37 1.94 1.32-2.07 1.38-4.34 1.32-.2 1.37-1.74 1.38 1.74 1.32.5 1.38-.57h1.13l1.38-4.11 1.38-5.28 1.31-.61h1.38l1.32-1.64 1.38-2.46 1.37.4 1.32-.59 1.38-.94 1.31 1.94 1.38-3.6 1.32 1.46 1.38-.33 1.37-.73 1.32.33 1.2-1.14 1.31 2.68 1.38 1.13 1.38 4.34 1.32-.8 1.37-3.74 1.32-1.13 1.38-.41 1.38 2.68 1.31.2 1.38.93 1.32-2.07 1.37-1.53 1.32-1.34 1.38 2.87 1.38.74 1.31.2 1.2-2.88 1.32-2.2 1.38-1.33 1.37-.61 1.32-.33 1.38-1.14 1.31.34 1.38-2.2 1.38-.61 1.32 1.14 1.37 1.54 1.32.73 1.38-2.27 1.31 2.27 1.38 1.47 1.38-1.47 1.14-1.33 1.37-.74 1.32-.4 1.38-.54 1.37-1.33 1.32 2.27 1.38 2.47 1.32 4.14 1.37-2.67 1.38-.53 1.32 3 1.37 2.07 1.32-1.74 1.38-3.2 1.32-.13 1.37.93 1.38-.4 1.14-4.67 1.38.68 1.31-1.78h1.38l1.38-.49 1.32-.47 1.37-.88 1.32-.3 1.38 1.15 1.37-3.4 1.32-7.74 1.38.94 1.31.4 1.38.53 1.32-2.6 1.38.53 1.19 2.27 1.32 2.48 1.38 1.66 1.32-3.2 1.37-.54 1.38-.39 1.32 1.33 1.37-1.54 1.32.8 1.38-1.13 1.38 1.27 1.31-5.24 1.38-.44h1.32l1.38 2.31 1.31-1.02 1.2 6.7 1.38-2.29 1.31-.74 1.38-.75 1.32.34 1.38 2.27 1.37.8 1.32 3.74 1.38-1.54v251.12h-878.82z" fill="url(#a)"/><path d="m1.46 171.64 1.31-.33 1.38-1.34 1.38-.6 1.31 1 1.38-.47 1.32-.4h1.38 1.19l1.32 1.47 1.38-1.37 1.32.35 1.37.55h1.32l1.38-1h1.37l1.32.9 1.38-.08 1.32-.82h1.37l1.38.5 1.32-.65 1.37-3.26 1.32.91 1.2-2.49 1.38-.01h1.31l1.38-2.4 1.32-.6h1.37l1.32-1.63 1.38-1.37h1.38l1.31-.31 1.38.15 1.32 3.38 1.37.72 1.38-1.88 1.32.94 1.38-.41 1.13-.93 1.38-1.47 1.38 1.07 1.32.07 1.37-1.33h1.32l1.38-2.48 1.31-.3 1.38-1.72 1.38 1.11 1.32.39 1.37-1.15 1.32.54 1.38-.21 1.38 1.74 1.31-1.86 1.38.94h1.14l1.37-.01 1.38-.7 1.32.25 1.38-.54h1.31l1.38 1.43 1.32-.36 1.38 2.4 1.37-.47h1.32l1.38-2.31 1.31-1.49 1.38-3.38 1.38.21 1.31.21 1.2 4.87 1.32-2.06 1.38 3.6 1.37.4 1.32-1.93 1.38-2.07 1.32-2.27 1.37-.54 1.32-.95 1.38.71h1.37l1.32-.51 1.38 1.04 1.32-1.88 1.37-2.04 1.38-1.46 1.32-2.46 1.2-2.07 1.31-.44 1.38-1.18h1.38l1.31-2.56 1.38-2.78 1.32-1.12 1.38-3.2 1.31.73 1.38.94 1.38 2.8 1.31-.81h1.38 1.32l1.38-1.86 1.37.14 1.14-1.57 1.38 2.85 1.32-1.54 1.37.6 1.38 1.26 1.32-1.47 1.37-1.73 1.32-.74 1.38 1.67 1.32 2.87 1.37-1.33 1.38.6 1.32-.8 1.37-.94 1.32 1.34 1.38 3.2 1.2 1.34 1.31 2.4 1.38-2.07 1.32-.2 1.38-2.2 1.37-.2 1.32-2.87 1.38 1.33 1.31.6 1.38-.4 1.32-.53 1.38-.2 1.37-.8 1.32-.14 1.38-3.61h1.31l1.38-1h1.2l1.32.14 1.37-.24 1.32 2.06 1.38-.95 1.38 1.14 1.31.19 1.38-1.13 1.32.73 1.37-1.33 1.32.2 1.38.73 1.37-3 1.32-1.27 1.38-.4 1.32 2.27 1.19 1.33 1.38 1.07 1.32.46h1.38l1.31-2.4 1.38-2.27 1.38 3.91 1.32-.62 1.37 2.26 1.32-1.87 1.38.53 1.31-1.47 1.38-.2 1.38.6 1.32 5.08 1.37-.2 1.2-2.07 1.32 2.8 1.37-.2 1.32-1.47 1.38-2.27 1.32-.93 1.37.33 1.38-2.6 1.32.2 1.38.33 1.31 1.54 1.38-.2 1.32-.34 1.37-3.27 1.38-3.2h1.32 1.38l1.19.6 1.32-.5 1.38-1.09 1.31-1.04 1.38-.59 1.32 1.34 1.38-3.8 1.37.2 1.32 1.14 1.38-2.27 1.31.8 1.38 6.94 1.32.94 1.38-3.61 1.37-1.67 1.32-1.53 1.2-1.27 1.38.33 1.31-1.67 1.38-1.67 1.32-1.13 1.37-.6 1.32 2.07 1.38-3.01 1.38.4 1.31 1.47 1.38-.53 1.32 1.67 1.37 1.53 1.32.94 1.38-2.47 1.38 2.27 1.31.4 1.2 2.07 1.38-1.14 1.32-.73 1.37.73 1.32-3.2 1.38-.74 1.31-1.73 1.38-.2 1.38 1.53 1.32-.2 1.37-3.74 1.32-4.54 1.38.2 1.31-.93 1.38-2.07 1.38-.2 1.14-2.47 1.37.93 1.38 1.54 1.32-.6 1.38 1.73 1.31-.93 1.38.53 1.32-.4 1.37 1.94 1.38.33 1.32-.93 1.38-1.67 1.31.53 1.38.4 1.32 1.67 1.37-2.6 1.2-.72 1.32-.98h1.38l1.37.25 1.32-.98 1.38-.96 1.32-.61 1.37-1.27 1.32-.81 1.38-.73 1.37-1.14 1.32-3.74 1.38 1.14 1.32-1.74 1.37 2.87 1.32-3.4 1.38-.74 1.19-1 1.32.4 1.38-.4 1.38-1.47 1.31-3.94 1.38 1.47 1.32 4.54 1.38 1.47 1.31-1.27 1.38 3.01 1.38-2.81 1.31 2.61 1.38 5.47 1.32-2.67 1.38.4 1.31-2.27 1.2-.33 1.38-.8 1.31-2.27 1.38.6 1.38-2.67 1.32.6 1.37-.2 1.32-2.27 1.38.6 1.32-.4 1.37-1.54 1.38-1.47 1.32.74 1.37.2 1.32-.94 1.38-1.33 1.2.73 1.31-4.67 1.38-1.34 1.32-1.33 1.37 1.53 1.38.33 1.32 3.08 1.38 3.54 1.31 3.6 1.38-.6 1.32-2.07 1.38-2.4 1.37 1.47 1.32.8 1.38.13 1.31.6 1.38-1.13 1.2 2.8 1.32 1.14 1.37-.2 1.32-2.07 1.38-3.21 1.38-.73 1.31 1.67 1.38 2.27 1.32 3.4 1.37.2 1.32-3.8 1.38 2.47 1.38 1.73 1.31 1.07 1.38 3.07 1.32-3.04 1.19-2.24h1.38l1.32-.16 1.38-2.39 1.31 1.91 1.38-.31 1.38 2.22 1.32.4 1.37-2.8 1.32-2.47 1.38-.4 1.31-.73 1.38-.74 1.38 2.14 1.32 1.33h1.37l1.32.94 1.2-3.14 1.37-.57 1.32-1.12 1.38 3.42 1.32-.2 1.37-3 1.38 1.14 1.32-1.34 1.38-2.27 1.31-2.8 1.38-.61 1.32-3.93 1.37-1.34 1.38-.56 1.32.38h1.38l1.19-.71 1.32-1.09 1.38-1.92 1.31-3.56 1.38-1.74 1.32-1.14 1.38.59 1.37.54 1.32.73 1.38-.93 1.32-1.14 1.37-.53 1.32-.61 1.38 1.92 1.37.59h1.32l1.2.55 1.37-3.7 1.32.36 1.38.31 1.32-.35 1.37-.69 1.32.52h1.38l1.38 1.75 1.31 2.71 1.38-.26 1.32 2.8h1.38l1.31-3.92 1.38 1.81 1.38-.56 1.31 2.46 1.2-4.15 1.38 2.8 1.31.93 1.38-3 1.32-.94 1.38 1.25 1.31 1.32h1.38l1.38-.38 1.32 3.18 1.37 1.72 1.32-.37 1.38-3.39 1.32-1.27 1.37.34 1.38 3.08 1.14-6.08 1.37 1.87 1.38-2.07 1.32-2.2 1.38.59 1.31-2.02h1.38l1.32 1.08 1.37-2.5 1.38-.55 1.32-.4 1.38-2.08 1.31-.73 1.38.73 1.32-1.53 1.37.6 1.2 1.33 1.32-.6 1.38.33 1.37-.68h1.32l1.38 2.01 1.32-1.1 1.37-.78 1.32 1.75 1.38 2.93 1.37-.81h1.32 1.38l1.32 1.75 1.37 2.84 1.32.82 1.38-1.72 1.2.94 1.31-4.68 1.38-1.53 1.38.4 1.31 3.94 1.38.2 1.32-2.47 1.37 4.14 1.32 2.87 1.38 1.14 1.38 3.33 1.31 4.75 1.38 2.07 1.32-.54 1.38-1.53 1.31-5.48 1.2-4.54 1.38-2.6 1.32-5.68 1.37 1.74 1.38-.2 1.32-2.07 1.37 3 1.32-3.61 1.38-3 1.31-1.33 1.38-1.68 1.38 1.88 1.32 5.07 1.37.2 1.32-1.71 1.38 1.29h1.32l1.19-1.09 1.38 1.99 1.32-.44 1.37-1.69 1.38 1.13 1.32-2.48 1.38 1.66 1.31-2.08h1.38l1.32-4.87 1.38.31 1.37-1.82 1.32.16 1.38.81 1.31 1.88 1.38-1.33 1.2-2.61 1.32-.6 1.37-4.34 1.32 2.47 1.38 1.34 1.37 2.4 1.32 3.01 1.38 3.07 1.32 2.6 1.37.41 1.32-2.87 1.38-3.94 1.37-.2 1.32.93 1.38-1.47 1.32-1.34h1.19l1.38-.93 1.32 1.73 1.38 1.2h1.31l1.38-1.83 1.38 4.75 1.31 2.08h1.38l1.32-6.17 1.38.96 1.31 2.04 1.38.93 1.38 1.46 1.31 3 1.38-1.07 1.32-.2 1.2-.93 1.37 1.67 1.32-2.28 1.38-1.66 1.32-3.21 1.37 1.27 1.38 1 1.32-3.07 1.37 1.94 1.32-2.07 1.38-4.34 1.32-.2 1.37-1.74 1.38 1.74 1.32.5 1.38-.57h1.13l1.38-4.11 1.38-5.28 1.31-.61h1.38l1.32-1.64 1.38-2.46 1.37.4 1.32-.59 1.38-.94 1.31 1.94 1.38-3.6 1.32 1.46 1.38-.33 1.37-.73 1.32.33 1.2-1.14 1.31 2.68 1.38 1.13 1.38 4.34 1.32-.8 1.37-3.74 1.32-1.13 1.38-.41 1.38 2.68 1.31.2 1.38.93 1.32-2.07 1.37-1.53 1.32-1.34 1.38 2.87 1.38.74 1.31.2 1.2-2.88 1.32-2.2 1.38-1.33 1.37-.61 1.32-.33 1.38-1.14 1.31.34 1.38-2.2 1.38-.61 1.32 1.14 1.37 1.54 1.32.73 1.38-2.27 1.31 2.27 1.38 1.47 1.38-1.47 1.14-1.33 1.37-.74 1.32-.4 1.38-.54 1.37-1.33 1.32 2.27 1.38 2.47 1.32 4.14 1.37-2.67 1.38-.53 1.32 3 1.37 2.07 1.32-1.74 1.38-3.2 1.32-.13 1.37.93 1.38-.4 1.14-4.67 1.38.68 1.31-1.78h1.38l1.38-.49 1.32-.47 1.37-.88 1.32-.3 1.38 1.15 1.37-3.4 1.32-7.74 1.38.94 1.31.4 1.38.53 1.32-2.6 1.38.53 1.19 2.27 1.32 2.48 1.38 1.66 1.32-3.2 1.37-.54 1.38-.39 1.32 1.33 1.37-1.54 1.32.8 1.38-1.13 1.38 1.27 1.31-5.24 1.38-.44h1.32l1.38 2.31 1.31-1.02 1.2 6.7 1.38-2.29 1.31-.74 1.38-.75 1.32.34 1.38 2.27 1.37.8 1.32 3.74" fill="none" stroke="#f2c30c" stroke-linecap="round" stroke-linejoin="round"/></svg>