<svg viewBox="0 0 86.434 17" xmlns="http://www.w3.org/2000/svg"><g fill-rule="evenodd"><path d="m1.617 13.136a3.352 3.352 0 0 0 1.361 1.307 3.735 3.735 0 0 0 1.709.42 3.162 3.162 0 0 0 1-.17 2.937 2.937 0 0 0 .931-.511 2.709 2.709 0 0 0 .686-.841 2.431 2.431 0 0 0 .266-1.159 1.832 1.832 0 0 0 -.532-1.42 4.492 4.492 0 0 0 -1.32-.818q-.785-.33-1.718-.637a6.67 6.67 0 0 1 -1.719-.852 4.464 4.464 0 0 1 -1.319-1.466 4.969 4.969 0 0 1 -.532-2.489 4.579 4.579 0 0 1 .276-1.5 4.238 4.238 0 0 1 .87-1.455 4.787 4.787 0 0 1 1.524-1.102 5.179 5.179 0 0 1 2.242-.443 7.1 7.1 0 0 1 2.272.364 3.926 3.926 0 0 1 1.9 1.477l-1.6 1.614a2.763 2.763 0 0 0 -1.037-1.023 3.036 3.036 0 0 0 -1.535-.386 3.389 3.389 0 0 0 -1.361.239 2.432 2.432 0 0 0 -.87.614 2.213 2.213 0 0 0 -.461.801 2.718 2.718 0 0 0 -.133.8 2.154 2.154 0 0 0 .533 1.568 4.081 4.081 0 0 0 1.32.886 14.827 14.827 0 0 0 1.719.614 6.952 6.952 0 0 1 1.719.761 4.175 4.175 0 0 1 1.32 1.318 4.206 4.206 0 0 1 .532 2.284 5.261 5.261 0 0 1 -.4 2.091 4.517 4.517 0 0 1 -2.67 2.546 5.615 5.615 0 0 1 -1.965.341 6.523 6.523 0 0 1 -2.64-.545 4.428 4.428 0 0 1 -1.985-1.682zm10.95-12.727h1.965v16.091h-1.965zm18.033 7.091v7.932a6.34 6.34 0 0 1 -1.208.636 11.921 11.921 0 0 1 -1.4.466 10.81 10.81 0 0 1 -1.474.284 11.64 11.64 0 0 1 -1.4.091 7.6 7.6 0 0 1 -3.285-.682 7.226 7.226 0 0 1 -2.436-1.841 8.107 8.107 0 0 1 -1.515-2.693 9.986 9.986 0 0 1 -.522-3.239 9.69 9.69 0 0 1 .563-3.341 8.4 8.4 0 0 1 1.555-2.682 7.093 7.093 0 0 1 5.43-2.431 8.215 8.215 0 0 1 3.275.557 6 6 0 0 1 2.129 1.534l-1.392 1.659a5.1 5.1 0 0 0 -1.9-1.33 5.969 5.969 0 0 0 -2.108-.375 4.884 4.884 0 0 0 -2.251.511 5.393 5.393 0 0 0 -1.719 1.375 6.221 6.221 0 0 0 -1.105 2.034 7.843 7.843 0 0 0 -.389 2.489 7.3 7.3 0 0 0 .43 2.534 6.391 6.391 0 0 0 1.187 2.034 5.5 5.5 0 0 0 1.781 1.352 5.11 5.11 0 0 0 2.231.489 8.724 8.724 0 0 0 1.975-.216 5.191 5.191 0 0 0 1.586-.625v-4.477h-2.123l-1.095-2.045zm25.5-7.25 7.184 16.75h-2.292l-4.892-11.636-4.892 11.636h-2.292zm9.8-.159h1.965v14.76h6.652v2.149h-8.617zm12.49 13.045a3.352 3.352 0 0 0 1.361 1.307 3.735 3.735 0 0 0 1.709.42 3.162 3.162 0 0 0 1-.17 2.937 2.937 0 0 0 .931-.511 2.709 2.709 0 0 0 .686-.841 2.431 2.431 0 0 0 .266-1.159 1.832 1.832 0 0 0 -.532-1.42 4.492 4.492 0 0 0 -1.32-.818q-.788-.33-1.719-.636a6.67 6.67 0 0 1 -1.719-.852 4.464 4.464 0 0 1 -1.32-1.466 4.969 4.969 0 0 1 -.533-2.49 4.579 4.579 0 0 1 .279-1.5 4.238 4.238 0 0 1 .87-1.455 4.787 4.787 0 0 1 1.525-1.1 5.179 5.179 0 0 1 2.241-.445 7.1 7.1 0 0 1 2.272.364 3.926 3.926 0 0 1 1.9 1.477l-1.6 1.614a2.763 2.763 0 0 0 -1.037-1.023 3.036 3.036 0 0 0 -1.535-.386 3.389 3.389 0 0 0 -1.361.239 2.432 2.432 0 0 0 -.87.614 2.213 2.213 0 0 0 -.461.807 2.717 2.717 0 0 0 -.133.8 2.154 2.154 0 0 0 .532 1.568 4.081 4.081 0 0 0 1.32.886 14.826 14.826 0 0 0 1.719.614 6.951 6.951 0 0 1 1.719.761 4.175 4.175 0 0 1 1.32 1.313 4.205 4.205 0 0 1 .532 2.284 5.26 5.26 0 0 1 -.4 2.091 4.517 4.517 0 0 1 -2.671 2.545 5.615 5.615 0 0 1 -1.965.341 6.523 6.523 0 0 1 -2.64-.545 4.429 4.429 0 0 1 -1.985-1.682z"/><g transform="translate(33.59)"><path d="m0 2.148v-2.148l10.5 14.171 1.994 2.6h-1.494l-9-12.022h-.047v12.024h-1.953z" fill="#fcc521"/><path d="m14.494 0v16.773l-10.5-14.173-1.994-2.6h1.5l9 12.022h.041v-12.022z" fill="#808080" transform="translate(-1.59)"/></g></g></svg>